<?xml version="1.0" encoding="UTF-8"?><svg id="Capa_2" xmlns="http://www.w3.org/2000/svg" viewBox="0 0 95.87 130.37"><defs><style>.cls-1{fill:#eeeeef;}.cls-2{fill:#fff;}.cls-3{fill:#8f7fb9;}.cls-4{fill:#41426c;}.cls-5{fill:#47a267;}</style></defs><g id="Capa_2-2"><g><g><path class="cls-3" d="M79.37,129.37c-.89,0-1.81-.08-2.72-.23-.82-.14-1.9-.36-3.05-.86-2.49-1.08-3.51-2.85-3.93-4.15-.63-1.93-.34-4.07,.82-6.04,.75-1.27,1.82-2.31,3.18-3.07-.79-.24-1.66-.42-2.56-.6l-.4-.08c-1.32-.27-2.71-.41-4.26-.41-2.14,0-4.21,.26-5.78,.49-3.31,.48-6.91,1.04-10.99,1.69-1.02,.16-2.05,.24-3.07,.24-1.88,0-3.77-.28-5.59-.83-.27-.08-.54-.17-.82-.26-1.93,1.23-3.9,1.53-4.68,1.64-.77,.12-1.55,.17-2.31,.17-1.61,0-3.22-.26-4.76-.77-.11-.04-.24-.07-.38-.11-.29-.08-.59-.16-.91-.27-1.77,1.14-3.83,1.72-6.11,1.72-.65,0-1.32-.05-2-.14-.23-.03-.45-.08-.67-.14-.17-.03-.35-.07-.52-.12-.35-.1-.71-.2-1.09-.3l-.27-.07c-.1-.03-.2-.06-.29-.09-.28-.06-.63-.19-.96-.37-.12-.06-.3-.14-.49-.22-.46-.19-1.08-.45-1.72-.86-2.96-1.85-3.99-4.45-3.16-7.92,.26-1.1,.7-1.99,1.12-2.79,.11-.21,.22-.43,.33-.67,.11-.23,.22-.46,.34-.69v-.12c-.15-3.04-.64-6.12-1.09-8.74-.33-1.93-.61-3.92-.86-5.67l-.28-1.96-.27-1.83c-.31-2.08-.63-4.23-.84-6.45-.54-5.68-.67-11.5-.37-17.31,.11-2.13,.19-4.32,.27-6.43v-.18c.06-1.36,.11-2.76,.17-4.15,.03-.71,.07-1.42,.12-2.11-.44-.45-.9-.94-1.34-1.48-2.12-2.61-3.65-5.61-4.67-9.18-.65-2.28-1.06-4.75-1.28-7.77-.27-3.65-.3-6.5-.11-9.22,.18-2.55,.66-4.95,1.13-7.28l.07-.33c.44-2.19,.96-4.53,1.76-6.85,.21-.61,.46-1.16,.75-1.67,1.01-1.78,2.71-2.81,4.65-2.81,.37,0,.74,.04,1.12,.11,1.63,.3,2.9,.99,3.83,1.55,3.42,2.07,5.77,4.89,7.62,7.38,.13,.17,.26,.35,.39,.53,1.75-.33,3.56-.49,5.51-.49,.21,0,.41,0,.62,0,.87,.01,1.79,.09,2.79,.22,2.08-2.6,4.39-4.77,6.39-6.56,1.18-1.05,2.42-1.86,3.48-2.52,1.01-.62,2.03-.93,3.05-.93,1.33,0,2.59,.53,3.74,1.57,2,1.8,3.47,4.1,4.37,6.82,.69,2.08,1.15,4.32,1.34,6.65l.06,.76c.18,2.09,.37,4.25,.35,6.45l.03,.5c.02,.41,.04,.79,.06,1.16,.14,1.98,0,4.07-.45,6.39-.09,.46-.17,.91-.25,1.4-.29,1.65-.58,3.35-1.2,5.13-.85,2.43-1.9,5.25-3.54,7.89-.16,.25-.32,.5-.5,.75,1.41,1.85,2.99,3.52,4.71,4.96,2.12,1.77,3.93,3.7,5.75,5.69,3.5,3.82,6.48,7.96,8.84,12.29,2.36,4.32,3.61,8.91,3.73,13.66,.01,.49,.03,.98,.05,1.49,.06,1.67,.13,3.37-.01,5.16v.18c-.2,2.25-.38,4.52-.67,6.79,2.17,.19,4.83,.51,7.55,1.21,2.47,.64,5.37,1.53,8.12,3.32,2.85,1.86,4.99,3.98,6.53,6.47,2.05,3.31,2.48,7.03,1.25,10.75-.45,1.34-.95,2.87-2.09,4.37-1.2,1.58-2.54,3.23-4.62,4.39-2.59,1.45-5.32,2.19-8.11,2.19Z"/><path class="cls-1" d="M44.29,2c1.07,0,2.11,.44,3.07,1.31,1.86,1.68,3.24,3.84,4.09,6.39,.67,2.01,1.11,4.17,1.3,6.42l.06,.76c.18,2.07,.36,4.21,.35,6.36,0,.19,.02,.37,.03,.55,.02,.42,.04,.81,.06,1.19,.14,1.89,0,3.89-.43,6.13-.09,.46-.17,.92-.25,1.41-.28,1.61-.57,3.27-1.16,4.97-.83,2.38-1.86,5.13-3.44,7.69-.27,.44-.57,.87-.89,1.28,1.57,2.16,3.35,4.08,5.32,5.72,2.07,1.73,3.86,3.64,5.66,5.6,3.45,3.77,6.38,7.83,8.7,12.09,2.28,4.18,3.5,8.62,3.61,13.2,.01,.51,.03,1.01,.05,1.54,.06,1.61,.13,3.27-.01,5v.18c-.22,2.55-.43,5.16-.8,7.78,2.82,.21,5.61,.54,8.44,1.26,2.39,.62,5.19,1.48,7.82,3.19,2.73,1.78,4.76,3.79,6.23,6.16h0c1.89,3.06,2.28,6.48,1.15,9.91-.42,1.28-.9,2.71-1.93,4.08-1.13,1.5-2.4,3.05-4.31,4.13-2.45,1.37-5,2.06-7.62,2.06-.85,0-1.7-.07-2.56-.22-.76-.13-1.77-.33-2.82-.79-2.15-.93-3.02-2.44-3.38-3.54-.54-1.65-.28-3.51,.73-5.22,.71-1.2,1.74-2.16,3.07-2.85,.41-.21,.83-.5,1.35-.93-.13-.08-.26-.16-.41-.23-1.17-.56-2.57-.85-4.05-1.16l-.39-.08c-1.49-.31-2.99-.43-4.46-.43-2.08,0-4.1,.24-5.93,.5-3.3,.48-6.9,1.04-11.01,1.69-.97,.15-1.94,.23-2.91,.23-1.79,0-3.56-.26-5.31-.79-.41-.12-.83-.26-1.25-.42-1.86,1.34-3.88,1.64-4.68,1.76-.72,.11-1.44,.16-2.16,.16-1.51,0-3-.24-4.45-.72-.13-.04-.3-.09-.48-.14-.36-.1-.8-.22-1.26-.4-1.7,1.22-3.7,1.83-5.98,1.83-.6,0-1.23-.04-1.87-.13-.2-.03-.39-.07-.58-.12-.15-.02-.3-.06-.45-.1-.41-.12-.83-.23-1.28-.35l-.11-.03c-.08-.02-.16-.04-.23-.07-.28-.07-.55-.17-.81-.3-.14-.08-.35-.16-.57-.26-.45-.19-1-.42-1.57-.78-2.59-1.62-3.45-3.8-2.72-6.84,.24-.99,.64-1.81,1.03-2.56,.11-.22,.23-.45,.35-.69,.14-.29,.29-.6,.46-.91,0-.07,0-.14-.01-.21v-.18c-.16-3.1-.65-6.22-1.11-8.86-.33-1.89-.6-3.8-.85-5.64-.09-.65-.18-1.31-.28-1.96-.09-.61-.18-1.22-.27-1.83-.31-2.08-.63-4.22-.84-6.4-.54-5.63-.66-11.4-.36-17.16,.11-2.2,.2-4.45,.28-6.63,.05-1.36,.1-2.76,.16-4.14,.04-.85,.09-1.7,.15-2.54-.53-.53-1.07-1.09-1.59-1.73-2.04-2.5-3.51-5.39-4.49-8.82-.63-2.21-1.03-4.62-1.24-7.57-.26-3.61-.3-6.41-.11-9.08,.17-2.48,.65-4.85,1.11-7.15l.07-.33c.43-2.15,.94-4.46,1.73-6.72,.19-.55,.41-1.05,.67-1.51,.85-1.49,2.2-2.3,3.79-2.3,.3,0,.62,.03,.93,.09,1.47,.28,2.64,.91,3.49,1.42,3.27,1.98,5.54,4.71,7.34,7.12,.26,.35,.52,.69,.78,1.03,1.86-.4,3.82-.6,5.94-.6,.2,0,.4,0,.6,0,1.12,.02,2.2,.14,3.24,.29,2.09-2.7,4.49-4.98,6.63-6.89,1.11-1,2.31-1.78,3.34-2.41,.85-.52,1.7-.79,2.53-.79m0-2c-1.21,0-2.41,.36-3.58,1.08-1.1,.68-2.39,1.52-3.62,2.62-1.92,1.72-4.12,3.78-6.15,6.25-.83-.09-1.6-.15-2.35-.16-.21,0-.42,0-.63,0-1.79,0-3.47,.13-5.09,.4,0-.01-.02-.02-.02-.03-1.91-2.56-4.34-5.47-7.9-7.63-1-.61-2.38-1.34-4.16-1.68-.44-.08-.88-.12-1.3-.12-2.31,0-4.33,1.21-5.52,3.31-.32,.57-.59,1.17-.82,1.84-.82,2.37-1.35,4.76-1.8,6.98l-.07,.33c-.47,2.36-.96,4.79-1.15,7.4-.19,2.77-.16,5.66,.11,9.36,.22,3.09,.64,5.63,1.31,7.98,1.06,3.7,2.65,6.82,4.86,9.54,.36,.45,.73,.85,1.09,1.23-.03,.53-.07,1.11-.09,1.69-.06,1.38-.11,2.78-.16,4.13-.08,2.07-.17,4.4-.28,6.62-.3,5.86-.18,11.73,.37,17.46,.21,2.22,.54,4.39,.85,6.49l.02,.13c.08,.56,.17,1.13,.25,1.7,.09,.61,.17,1.22,.26,1.82l.02,.13c.26,1.88,.53,3.79,.86,5.7,.44,2.54,.91,5.53,1.06,8.48-.08,.16-.15,.31-.23,.47-.11,.23-.22,.44-.32,.64-.43,.83-.92,1.81-1.21,3.02-.93,3.89,.28,6.92,3.6,9.01,.71,.44,1.37,.72,1.86,.93,.16,.07,.31,.13,.41,.18,.38,.2,.78,.35,1.19,.46,.09,.03,.18,.05,.27,.08l.11,.03c.45,.12,.85,.23,1.24,.34,.19,.05,.38,.1,.57,.13,.24,.07,.49,.12,.75,.15,.73,.1,1.45,.15,2.14,.15,2.31,0,4.41-.55,6.25-1.63,.17,.05,.32,.09,.45,.13,.14,.04,.28,.08,.38,.11,1.65,.54,3.36,.82,5.08,.82,.81,0,1.64-.06,2.46-.18,.78-.12,2.69-.4,4.65-1.54,.15,.05,.29,.09,.41,.13,1.92,.58,3.9,.87,5.88,.87,1.07,0,2.16-.09,3.23-.26,4.09-.65,7.68-1.2,10.98-1.68,1.54-.22,3.57-.48,5.64-.48,1.48,0,2.81,.13,4.06,.39l.39,.08c.14,.03,.29,.06,.43,.09-.67,.61-1.24,1.32-1.7,2.1-1.31,2.21-1.63,4.65-.91,6.86,.49,1.49,1.66,3.53,4.49,4.76,1.25,.54,2.41,.78,3.28,.93,.96,.16,1.94,.24,2.89,.24,2.96,0,5.86-.78,8.6-2.32,2.25-1.26,3.72-3.07,4.93-4.66,1.23-1.63,1.79-3.31,2.24-4.66,1.33-4.01,.86-8.01-1.34-11.59-1.62-2.62-3.86-4.84-6.84-6.79-2.87-1.87-5.86-2.8-8.41-3.45-2.38-.61-4.69-.94-6.69-1.14,.22-1.97,.38-3.91,.53-5.81v-.18c.16-1.85,.1-3.57,.03-5.23-.02-.53-.04-1.02-.05-1.52-.12-4.9-1.42-9.65-3.85-14.11-2.4-4.4-5.42-8.6-8.98-12.48-1.84-2.01-3.68-3.97-5.85-5.78-1.49-1.24-2.87-2.66-4.12-4.23,.04-.06,.08-.12,.11-.18,1.69-2.73,2.76-5.6,3.63-8.08,.65-1.86,.95-3.6,1.24-5.29,.08-.48,.16-.93,.25-1.38,.46-2.41,.61-4.59,.46-6.65-.03-.35-.04-.73-.06-1.12l-.02-.51c0-2.22-.18-4.38-.36-6.48l-.07-.76c-.2-2.4-.67-4.72-1.39-6.88-.96-2.89-2.52-5.33-4.65-7.25-1.32-1.19-2.85-1.83-4.42-1.83h0Z"/></g><path class="cls-4" d="M49.95,23.35c.03,.67,.06,1.29,.1,1.9,.13,1.78-.05,3.54-.38,5.29-.38,1.98-.62,4-1.29,5.92-.85,2.43-1.77,4.84-3.14,7.05-.55,.89-1.21,1.67-1.98,2.37-.19,.17-.21,.31-.09,.52,.12,.2,.22,.43,.35,.62,1.91,2.89,4.16,5.47,6.83,7.7,1.93,1.61,3.64,3.45,5.34,5.3,3.2,3.5,5.98,7.3,8.24,11.45,1.99,3.64,3.11,7.55,3.21,11.72,.05,2.07,.22,4.14,.05,6.2-.28,3.51-.56,7.02-1.23,10.49-.05,.25-.26,.56-.09,.73,.13,.13,.47,.06,.72,.07,3.59,.19,7.17,.44,10.66,1.34,2.4,.62,4.75,1.39,6.86,2.77,2.09,1.37,3.93,3.03,5.24,5.15,1.37,2.21,1.66,4.66,.83,7.18-.36,1.1-.73,2.2-1.44,3.14-.94,1.25-1.92,2.47-3.31,3.25-2.51,1.41-5.18,1.95-8.05,1.47-.71-.12-1.4-.28-2.06-.56-2.08-.9-1.96-2.73-1.14-4.13,.42-.71,1.04-1.24,1.77-1.61,.93-.48,1.73-1.12,2.51-1.81,1.3-1.15,1.33-2.72,.09-3.95-.51-.51-1.1-.91-1.75-1.22-1.65-.79-3.42-1.12-5.19-1.49-3.85-.8-7.69-.52-11.52,.04-3.69,.54-7.37,1.11-11.05,1.69-2.3,.37-4.54,.21-6.77-.46-.92-.28-1.81-.59-2.61-1.12-.13-.09-.22-.13-.33,.03-1.08,1.51-2.66,2.08-4.41,2.34-1.74,.26-3.44,.12-5.11-.43-.77-.26-1.59-.37-2.28-.86-.19-.14-.41-.26-.56-.44-.15-.19-.26-.13-.4,0-.38,.34-.76,.69-1.16,1.01-1.71,1.36-3.68,1.6-5.77,1.32-.23-.03-.26-.12-.19-.33,.3-.89,.6-1.78,.69-2.73,0-.06,.02-.11,.01-.17,0-.08,.03-.22-.1-.22-.12,0-.1,.13-.1,.22-.1,1-.38,1.96-.62,2.92-.03,.13-.08,.23-.25,.18-.48-.14-.96-.27-1.44-.4-.19-.05-.21-.1-.1-.29,.47-.8,.8-1.68,1.08-2.56,.03-.09,.07-.24-.05-.27-.16-.04-.15,.13-.18,.23-.32,.89-.64,1.79-.97,2.69-.03,.07-.03,.17-.15,.1-.63-.33-1.33-.53-1.94-.92-1.28-.8-1.72-1.53-1.28-3.33,.15-.64,.45-1.23,.76-1.82,.31-.6,.59-1.23,.92-1.82,.33-.59,.26-1.21,.23-1.83-.15-3.11-.61-6.19-1.14-9.26-.43-2.5-.76-5.01-1.12-7.52-.39-2.69-.83-5.37-1.09-8.07-.53-5.55-.64-11.11-.35-16.69,.19-3.6,.29-7.2,.45-10.8,.05-1.21,.14-2.43,.23-3.64,.02-.22-.04-.36-.19-.51-.75-.76-1.53-1.48-2.21-2.32-1.85-2.28-3.08-4.86-3.88-7.66-.65-2.26-.95-4.57-1.12-6.91-.21-2.87-.31-5.74-.11-8.62,.17-2.39,.65-4.72,1.12-7.06,.43-2.13,.9-4.24,1.61-6.3,.12-.33,.25-.66,.43-.96,.33-.57,.64-.74,1.29-.62,.87,.16,1.65,.55,2.41,1.01,2.63,1.59,4.6,3.85,6.41,6.28,.66,.88,1.33,1.76,1.99,2.64,.09,.12,.16,.14,.31,.09,2.47-.76,5-1.03,7.57-.98,1.54,.03,3.05,.27,4.56,.56,.14,.03,.2,0,.27-.11,2.04-2.98,4.59-5.48,7.26-7.88,.88-.79,1.87-1.44,2.88-2.07,.71-.44,1.09-.4,1.71,.17,1.52,1.37,2.54,3.08,3.19,5,.61,1.84,.98,3.73,1.14,5.67,.2,2.32,.42,4.64,.4,6.91Zm-30.5,20.72c.38-.18,.77-.36,1.17-.5,1.39-.47,2.81-.85,4.24-1.21,.09-.02,.24-.02,.21-.16-.03-.13-.16-.08-.26-.05-1.86,.41-3.68,.92-5.39,1.77-.21,.05-.36,.18-.54,.42,.26-.08,.43-.14,.57-.27Zm15.74,35.78c.15-.28,.17-.58,.16-.89-.13,.3-.28,.58-.27,.91-.06,.19-.14,.38-.19,.57-.62,2.66-.91,5.37-.96,8.09-.08,3.89,.15,7.76,.73,11.61,.33,2.18,.8,4.32,1.6,6.38,.42,1.1,.92,2.17,1.62,3.13,.15,.21,.32,.42,.54,.56,.08,.05,.17,.1,.24,0,.06-.09-.01-.14-.08-.2-.25-.22-.43-.5-.61-.77-.72-1.11-1.25-2.31-1.68-3.56-.89-2.56-1.32-5.22-1.64-7.9-.28-2.32-.41-4.66-.46-7-.05-2.55,.05-5.09,.4-7.61,.16-1.12,.32-2.23,.6-3.33Zm23.48,6.29c-.54,.21-1.06,.45-1.57,.73-1.51,.83-2.89,1.84-4.26,2.87-4.48,3.37-8.19,7.41-10.91,12.33-1.12,2.03-2.08,4.1-2.45,6.41-.07,.45-.11,.9-.03,1.35,.02,.15,.09,.27,.27,.23,.14-.03,.18-.17,.11-.26-.15-.2-.1-.41-.08-.62,.12-1.24,.43-2.43,.89-3.58,1.37-3.44,3.37-6.5,5.7-9.35,2.08-2.55,4.57-4.67,7.17-6.67,1.63-1.26,3.33-2.4,5.19-3.29,.24-.06,.46-.16,.69-.41-.31,.07-.53,.1-.72,.26Zm-24.21-47.27c-1.54,.8-3.14,1.47-4.7,2.22-.14,.07-.42,.14-.36,.29,.08,.17,.29-.02,.43-.08,1.63-.71,3.23-1.47,4.81-2.3,.21,.02,.38,.15,.56,.23,1.25,.59,2.55,.74,3.87,.37,3.18-.89,4.7-4.03,4.17-6.94-.03-.14-.07-.27-.26-.24-.32,.05-.46-.13-.57-.41-.45-1.19-1.15-2.2-2.18-2.98-1.81-1.37-4.2-1.22-5.83,.38-.74,.73-1.25,1.6-1.68,2.53-.12,.27-.2,.64-.42,.76-.51,.29-.36,.75-.44,1.15-.04,.19,.03,.4,.05,.61,.09,1.19,.51,2.24,1.23,3.18,.37,.48,.86,.83,1.3,1.24Zm-17.21,.49c1.95,.07,3.97-1.13,4.78-3.01,.5-1.16,.6-2.36,.35-3.59-.02-.12-.05-.26-.24-.2-.39,.13-.58-.09-.7-.4-.15-.39-.33-.77-.55-1.13-.91-1.43-2.13-2.39-3.87-2.6-1.34-.16-2.5,.26-3.5,1.15-.83,.74-1.38,1.67-1.75,2.72-.08,.24-.13,.56-.35,.64-.35,.12-.28,.34-.29,.58,0,.26,.03,.52,.07,.78,.54,2.85,3.17,5.13,6.04,5.07Zm10.19,2.99c.25,.57,.59,1.05,1.05,1.43,.17,.14,.36,.25,.58,.24,.07,0,.17-.02,.18-.12,0-.09-.08-.1-.14-.12-.24-.1-.41-.27-.58-.46-.78-.84-.87-1.88-.84-2.96,0-.13,.1-.15,.19-.21,.64-.4,1.23-.86,1.67-1.48,.16-.23,.27-.48,.12-.76-.15-.27-.41-.3-.68-.3-.47,0-.93,.02-1.4,.04-.8,.04-1.61,.09-2.41,.15-.48,.04-.74,.56-.44,.92,.57,.71,1.29,1.25,2.15,1.56,.19,.07,.26,.14,.26,.32,.02,.46-.02,.91-.09,1.36-.09,.51-.35,.92-.77,1.24-.5,.38-1.04,.59-1.68,.52-.14-.01-.29,0-.31,.18-.02,.19,.13,.22,.27,.24,.52,.09,1.02,.04,1.48-.22,.65-.35,1.19-.8,1.37-1.58Zm-.75,66.51s0,0,0,0c0-.23,0-.45,0-.68,0-1.31-.18-2.6-.28-3.9-.09-1.15-.19-2.31-.31-3.46-.15-1.34-.35-2.68-.48-4.02-.15-1.48-.29-2.96-.52-4.43-.19-1.22-.38-2.44-.58-3.66-.02-.15,.03-.38-.19-.37-.23,.01-.18,.24-.19,.4,0,.04,.01,.09,.02,.13,.08,1.11,.27,2.21,.43,3.3,.39,2.58,.48,5.2,.88,7.77,.2,1.24,.28,2.5,.4,3.75,.11,1.11,.21,2.21,.29,3.32,.07,.97,.09,1.95,.14,2.92,0,.19,.04,.38,.06,.57,.01,.09,.04,.19,.15,.2,.12,0,.13-.12,.15-.2,.03-.11,.03-.22,.03-.34,0-.44,0-.89,0-1.33ZM18.37,41.16s0,.05,0,.08c.19,.03,.38,.07,.57,.09,1.86,.1,3.72,.1,5.58,0,.18,0,.36,.02,.54-.05,.05-.02,.12-.03,.12-.1,0-.09-.08-.1-.15-.1-.07,0-.14,0-.2,0-1.88,0-3.77,.01-5.65,.02-.27,0-.53,.04-.8,.06Zm18.46-.66c-.18,0-.28,0-.38,0-2.17,.24-4.31,.67-6.42,1.25-.13,.04-.37,.02-.32,.2,.03,.12,.26,.05,.4,.02,1.71-.4,3.42-.78,5.14-1.09,.5-.09,1.02-.14,1.58-.38Zm-6.91,1.85c-.01,.06-.03,.12-.04,.18,1.9,.73,3.88,1.14,5.92,1.3-1.97-.45-3.93-.92-5.88-1.48Zm11.52-16.41c-.18-.01-.29,.03-.33,.18-.03,.13,.04,.22,.15,.27,.29,.13,.53,.35,.78,.54,.47,.35,.96,.68,1.4,1.07,.06,.06,.14,.16,.23,.09,.08-.05,.05-.17,.03-.26-.04-.18-.15-.33-.28-.46-.48-.45-.99-.86-1.53-1.24-.15-.11-.31-.18-.45-.2Zm-27.89,.38c0-.11-.09-.22-.22-.21-.11,0-.23,.02-.33,.07-.66,.31-1.28,.68-1.84,1.15-.11,.1-.2,.21-.26,.35-.03,.07-.08,.16,0,.22,.07,.07,.15,0,.21-.05,.7-.51,1.46-.91,2.24-1.28,.11-.05,.2-.11,.21-.24Zm11.79,14.15c-1.48-.41-2.96-.82-4.44-1.25,1.4,.68,2.87,1.16,4.44,1.25Z"/><path class="cls-2" d="M27.43,42.35c-.18,.79-.73,1.23-1.37,1.58-.47,.26-.97,.31-1.48,.22-.14-.02-.29-.06-.27-.24,.02-.18,.17-.19,.31-.18,.63,.06,1.18-.14,1.68-.52,.42-.32,.68-.73,.77-1.24,.08-.45,.11-.9,.09-1.36,0-.18-.08-.26-.26-.32-.86-.31-1.58-.85-2.15-1.56-.3-.37-.04-.88,.44-.92,.8-.06,1.61-.11,2.41-.15,.46-.03,.93-.04,1.4-.04,.26,0,.53,.03,.68,.3,.15,.28,.04,.54-.12,.76-.45,.62-1.04,1.08-1.67,1.48-.09,.05-.18,.07-.19,.21-.03,1.08,.06,2.12,.84,2.96,.17,.18,.34,.36,.58,.46,.06,.02,.15,.03,.14,.12-.01,.1-.11,.11-.18,.12-.23,0-.41-.1-.58-.24-.46-.38-.8-.86-1.05-1.43Z"/><path class="cls-2" d="M58.7,86.29c-1.86,.89-3.56,2.03-5.19,3.29-2.6,2-5.09,4.12-7.17,6.67-2.33,2.85-4.33,5.92-5.7,9.35-.46,1.15-.78,2.34-.89,3.58-.02,.21-.07,.42,.08,.62,.07,.09,.02,.23-.11,.26-.18,.04-.24-.08-.27-.23-.07-.45-.04-.9,.03-1.35,.37-2.31,1.33-4.39,2.45-6.41,2.72-4.93,6.44-8.96,10.91-12.33,1.37-1.03,2.76-2.04,4.26-2.87,.51-.28,1.03-.51,1.57-.73,.01,.05,.02,.1,.03,.15Z"/><path class="cls-2" d="M26.68,108.87c0,.44,0,.89,0,1.33,0,.11,0,.23-.03,.34-.02,.08-.03,.2-.15,.2-.11,0-.14-.1-.15-.2-.02-.19-.06-.38-.06-.57-.05-.97-.07-1.95-.14-2.92-.08-1.11-.18-2.22-.29-3.32-.12-1.25-.21-2.51-.4-3.75-.41-2.58-.49-5.19-.88-7.77-.17-1.1-.35-2.19-.43-3.3,0-.05-.02-.09-.02-.13,0-.16-.04-.39,.19-.4,.22-.01,.17,.22,.19,.37,.19,1.22,.38,2.44,.58,3.66,.23,1.47,.38,2.95,.52,4.43,.13,1.34,.34,2.68,.48,4.02,.13,1.15,.23,2.3,.31,3.46,.1,1.3,.28,2.6,.28,3.9,0,.23,0,.45,0,.68,0,0,0,0,0,0Z"/><path class="cls-2" d="M35.18,79.85c-.27,1.1-.44,2.21-.6,3.33-.35,2.52-.46,5.07-.4,7.61,.05,2.34,.18,4.67,.46,7,.32,2.68,.76,5.34,1.64,7.9,.43,1.25,.95,2.45,1.68,3.56,.18,.28,.36,.55,.61,.77,.06,.05,.13,.11,.08,.2-.07,.1-.16,.05-.24,0-.22-.15-.38-.35-.54-.56-.7-.96-1.2-2.03-1.62-3.13-.79-2.06-1.26-4.2-1.6-6.38-.59-3.85-.81-7.72-.73-11.61,.05-2.73,.34-5.43,.96-8.09,.05-.2,.12-.38,.19-.57,.04,0,.07-.01,.11-.02Z"/><path class="cls-2" d="M18.37,41.16c.27-.02,.53-.06,.8-.06,1.88-.01,3.77-.02,5.65-.02,.07,0,.14,0,.2,0,.07,0,.14,.01,.15,.1,0,.07-.07,.08-.12,.1-.17,.07-.36,.04-.54,.05-1.86,.09-3.72,.09-5.58,0-.19-.01-.38-.06-.57-.09,0-.03,0-.05,0-.08Z"/><path class="cls-2" d="M36.83,40.5c-.56,.24-1.08,.29-1.58,.38-1.73,.31-3.43,.69-5.14,1.09-.14,.03-.37,.11-.4-.02-.04-.18,.2-.16,.32-.2,2.11-.58,4.24-1.01,6.42-1.25,.1-.01,.19,0,.38,0Z"/><path class="cls-2" d="M29.93,42.35c1.94,.55,3.91,1.03,5.88,1.48-2.04-.16-4.02-.57-5.92-1.3,.01-.06,.03-.12,.04-.18Z"/><path class="cls-2" d="M41.45,25.94c.14,.02,.31,.09,.45,.2,.54,.38,1.05,.79,1.53,1.24,.13,.13,.24,.27,.28,.46,.02,.09,.05,.2-.03,.26-.09,.06-.17-.04-.23-.09-.44-.4-.93-.72-1.4-1.07-.25-.19-.49-.41-.78-.54-.11-.05-.19-.14-.15-.27,.04-.14,.15-.19,.33-.18Z"/><path class="cls-2" d="M34.46,38.87c.07,.03,.15,.03,.18,.12-1.57,.83-3.18,1.59-4.81,2.3-.14,.06-.35,.26-.43,.08-.07-.15,.21-.22,.36-.29,1.56-.75,3.16-1.42,4.7-2.22Z"/><path class="cls-2" d="M19.41,43.92c1.71-.85,3.53-1.36,5.39-1.77,.1-.02,.23-.08,.26,.05,.03,.14-.11,.14-.21,.16-1.42,.36-2.84,.74-4.24,1.21-.4,.14-.79,.32-1.17,.5-.01-.05-.02-.1-.03-.15Z"/><path class="cls-2" d="M13.56,26.32c-.01,.13-.11,.19-.21,.24-.78,.37-1.54,.77-2.24,1.28-.06,.04-.14,.12-.21,.05-.07-.06-.02-.15,0-.22,.06-.14,.15-.25,.26-.35,.56-.47,1.18-.85,1.84-1.15,.1-.05,.22-.07,.33-.07,.13,0,.22,.1,.22,.21Z"/><path class="cls-2" d="M25.35,40.48c-1.57-.09-3.03-.57-4.44-1.25,1.48,.43,2.96,.84,4.44,1.25Z"/><path class="cls-5" d="M35.18,79.85s-.07,.01-.11,.02c0-.33,.14-.62,.27-.91,0,.31-.01,.61-.16,.89Z"/><path class="cls-5" d="M58.7,86.29s-.02-.1-.03-.15c.18-.16,.41-.19,.72-.26-.23,.25-.45,.35-.69,.41Z"/><path class="cls-5" d="M19.41,43.92c.01,.05,.02,.1,.03,.15-.14,.13-.31,.19-.57,.27,.18-.24,.33-.37,.54-.42Z"/><path class="cls-5" d="M22.52,33.43c0-3.15-2.55-5.71-5.71-5.71s-5.71,2.55-5.71,5.71c0,2.08,1.11,3.9,2.78,4.9,.99,.67,2.15,1.06,3.36,1.04,1.95,.07,3.97-1.13,4.78-3.01,.35-.81,.5-1.63,.48-2.47,.01-.15,.02-.29,.02-.44Z"/><path class="cls-4" d="M17.52,30.56c1,0,1.55,.52,1.91,1.26,.56,1.16,.61,2.33,0,3.49-.68,1.3-2.03,1.39-2.89,.2-.87-1.21-.92-3.07-.06-4.29,.26-.37,.56-.78,1.04-.67Zm1.74,2.05c0-.54-.38-1.04-.78-1.1-.18-.03-.31,.06-.22,.21,.23,.36,.29,.77,.41,1.17,.04,.14,.15,.22,.31,.2,.16-.01,.21-.13,.25-.24,.03-.08,.02-.18,.03-.23Z"/><path class="cls-2" d="M19.25,32.61c0,.05,0,.15-.03,.23-.04,.11-.09,.23-.25,.24-.16,.01-.27-.06-.31-.2-.12-.39-.19-.8-.41-1.17-.09-.15,.04-.23,.22-.21,.4,.06,.77,.56,.78,1.1Z"/><path class="cls-5" d="M43.54,33.6c0-3.39-2.75-6.15-6.15-6.15s-6.15,2.75-6.15,6.15c0,2.24,1.2,4.2,2.99,5.27,1.06,.72,2.32,1.14,3.61,1.12,2.1,.07,4.28-1.22,5.15-3.25,.37-.87,.54-1.76,.52-2.66,.01-.16,.02-.32,.02-.48Z"/><path class="cls-4" d="M38.19,31.25c.44,.36,.52,.89,.61,1.39,.22,1.2-.08,2.29-.83,3.25-.74,.95-1.98,.92-2.69-.06-.67-.93-.79-1.98-.66-3.08,.09-.77,.36-1.48,.93-2.04,.78-.78,2.29-.47,2.64,.54-.18,0-.24-.2-.4-.25-.24-.08-.46,0-.39,.18,.16,.4,.19,.83,.36,1.22,.11,.25,.27,.2,.43,.07,.11-.09,.13-.22,.15-.36,.05-.31-.13-.57-.16-.87Z"/><path class="cls-2" d="M38.19,31.25c.02,.29,.21,.56,.16,.87-.02,.14-.04,.27-.15,.36-.16,.13-.32,.17-.43-.07-.17-.39-.2-.82-.36-1.22-.07-.17,.15-.26,.39-.18,.16,.05,.22,.25,.4,.25,0,0,0,0,0,0Z"/></g></g></svg>