<?xml version="1.0" encoding="UTF-8"?><svg id="Capa_2" xmlns="http://www.w3.org/2000/svg" viewBox="0 0 161.23 87.2"><defs><style>.verde-claro{fill:#80b087;}.lila{fill:#907fba;}.otro{fill:#8f7fb9;}.otro2{fill:#203730;}.verde-oscuro{fill:#34524a;}</style></defs><g id="Capa_2-2"><g><g><g><path class="verde-claro" d="M7.57,11.12c.51,.4,5.61,11.38,6.46,11.9,.4,.29,5.26-9.84,7.04-11.84,.29-.34,.34-.34,3.49-.34,1.89,0,3.38,.06,3.6,.17,.69,.23,.92,.69,.63,5.09-.29,3.26-.57,26.03-.8,26.54-.06,.11-.29,.34-.51,.4s-1.72,.11-3.2,.11-2.97-.06-3.2-.11c-.97-.4-.8-1.2-.92-14.53-4.63,6.52-4.58,6.35-6.01,7.27-1.95-1.26-3.55-3.89-6.12-7.89-.63,14.13,.57,14.59-1.37,15.05-.34,.06-1.2,.11-2.17,.11-1.54,0-3.32-.11-3.6-.23-.34-.11-.69-.86-.74-1.54-.17-1.72-.23-28.77,.17-29.92,.17-.4,.69-.51,2.75-.51h1.26c2.63,0,3.03,.06,3.26,.29Z"/><path class="verde-claro" d="M40.17,43.16c-4.29,0-7.04-2.92-8.64-6.69-2.29-5.21-1.43-13.62,1.83-18.53,2.4-3.49,5.72-4.86,9.78-4.86,.92,0,1.77,.06,2.12,.23,.11,.06,.17,.06,.23,.06,.17,0,.23-.06,.34-.17s.29-.17,1.14-.17c.46,0,1.14,.06,2.12,.06,3.6,.11,3.83,.17,4.06,.57,.23,.46,.23,10.01,.63,18.94,.29,6.52,.23,9.67-.17,10.13-.17,.17-.34,.23-1.72,.23h-3.78c-2.63,0-2.35-.17-2.52-2.46-.97,1.6-2.8,2.69-5.43,2.69Zm-.06-9.67c.34,.17,.8,.29,1.26,.29,.8,0,1.77-.29,2.4-1.14l.4-.51c0-3.55-.06-9.67-.23-9.95-.06-.11-.23-.11-.46-.11-.46,0-1.26,.17-1.89,.51-4.86,2.35-3.72,9.67-1.49,10.93Z"/><path class="verde-claro" d="M71.52,32c-.34,.34-6.86,.34-7.04,.46-.17,.17,.17,10.01-.23,10.35-.17,.17-2.86,.23-4.86,.23-1.03,0-1.83,0-2.12-.06-1.32-.34-1.09-1.49-1.2-8.81-.17-14.13,.23-19.62,5.72-21.74,.8-.29,3.15-.46,5.21-.46,1.89,0,3.66,.11,3.95,.4,.51,.51,.34,1.6,.06,5.72-.06,.74-.17,1.43-.23,1.54-.11,.17-.57,.17-2.46,.17h-1.09c-2.29,0-2.69,.34-2.86,5.89,1.14-.23,3.2-.29,4.69-.29,.86,0,1.49,0,1.66,.06,.92,.23,1.03,.63,1.03,3.72,0,2.23,0,2.63-.23,2.8Z"/><path class="verde-claro" d="M82.16,31.2q-.06,0-.11,.06c-.17,.17,1.43,3.89,7.32,4.06,1.32,.06,1.77,.11,1.95,.29s.23,.8,.29,3.55q0,3.72-.92,3.95c-.34,.06-1.37,.17-2.63,.17-5.61,0-10.07-1.95-12.76-7.21-3.2-6.24-1.83-18.42,5.15-22.37,1.66-.97,3.78-1.43,5.72-1.43,5.09,0,8.98,3.72,9.5,8.81,.63,6.12-3.83,11.04-9.21,11.1-2.8,0-3.89-.97-4.29-.97Zm.11-6.58c.4,.29,1.09,.46,1.77,.46,.63,0,1.2-.11,1.6-.29,1.14-.51,1.6-1.49,1.32-2.75-.23-1.09-1.03-1.72-1.89-1.72-1.43,0-2.57,1.66-2.92,2.86-.23,.69-.11,1.32,.11,1.43Z"/></g><path class="verde-claro" d="M31.1,74.61q-.06,0-.11,.06c-.17,.17,1.43,3.89,7.32,4.06,1.32,.06,9.33-.29,9.5-.12s.32,1.58,.38,4.33c0,3.72,.85,3.59-.06,3.82-.34,.06-9.88-.08-11.13-.08-5.61,0-10.07-1.95-12.76-7.21-3.2-6.24-1.83-18.42,5.15-22.37,1.66-.97,3.78-1.43,5.72-1.43,5.09,0,8.98,3.72,9.5,8.81,.63,6.12-3.83,11.04-9.21,11.1-2.8,0-3.89-.97-4.29-.97Zm.11-6.58c.4,.29,1.09,.46,1.77,.46,.63,0,1.2-.11,1.6-.29,1.14-.51,1.6-1.49,1.32-2.75-.23-1.09-1.03-1.72-1.89-1.72-1.43,0-2.57,1.66-2.92,2.86-.23,.69-.11,1.32,.11,1.43Z"/><path class="verde-claro" d="M58.16,64.27c-.34,0-.69,.06-.92,.23-1.43,.92-1.2,3.49-1.37,21.97-.34,.29-.51,.51-1.09,.51h-.17c-7.21-.29-7.09,.11-7.44-.97-.11-.51-.34-20.25-.06-28.95,.92-.46,2.57-.63,4.18-.63,2.06,0,4,.23,4.18,.34,.4,.23,.57,1.03,.69,.97,1.49-.74,2.52-1.03,4.06-1.03,2.46,0,4.58,.4,6.35,2.35,2.52,2.69,2.86,4.81,2.92,18.88,0,9.44,.11,8.12-.34,8.52-.29,.23-.57,.29-3.72,.29-3.66,0-4.23-.11-4.46-.69s0-16.7-.57-19.16c-.23-.97-.8-1.95-1.32-2.35-.23-.23-.57-.29-.92-.29Zm-.51-8.87c-.06,0-.86,.06-1.77,.11-.51,.06-.86,.06-1.09,.06-.46,0-.63-.06-.74-.17-.29-.29-.4-1.43-.34-3.03,.23-2.63,.46-6.01,3.83-6.01,2.29,0,3.32,.97,3.95,3.09,.34,1.03,.8,1.77,1.03,1.6,.17-.11,.4-1.43,.4-2.86,0-1.26,0-1.43,.23-1.54,.11-.06,.46-.11,.92-.11,1.2,0,2.97,.17,3.09,.4,.17,.23,0,4.06-.23,5.15-.51,2.23-2.06,3.43-4.46,3.43-4.29,0-2.97-4.52-3.95-4.52-1.09,0-.63,3.83-.86,4.4Z"/><path class="verde-claro" d="M92.65,85.85c-.17,.17-3.2,.34-5.15,.34-.92,0-1.6-.06-1.6-.11-1.09-.4-.74-1.49-.86-1.49-.17,0-2.46,1.37-5.26,1.37-.92,0-1.83-.11-2.75-.46-5.49-2-5.55-7.09-5.72-12.87-.11-4.81,.11-16.25,.34-16.53,.17-.23,1.77-.23,6.81-.34l.23,.34c.46,.69,.17,18.42,.4,19.74,.23,1.6,1.2,2.57,2.86,2.57,3.2,0,2.75-3.03,2.97-10.41,.34-12.18-.4-11.78,.51-12.18,.34-.11,.8-.17,2.12-.17h1.6c2.86,0,3.26,.06,3.43,.29,.46,.4,.34,29.69,.06,29.92Z"/><path class="verde-claro" d="M103.06,74.07q-.06,0-.11,.06c-.17,.17,1.43,3.89,7.32,4.06,1.32,.06,1.77,.11,1.95,.29s.23,.8,.29,3.55q0,3.72-.92,3.95c-.34,.06-1.37,.17-2.63,.17-5.61,0-10.07-1.95-12.76-7.21-3.2-6.24-1.83-18.42,5.15-22.37,1.66-.97,3.78-1.43,5.72-1.43,5.09,0,8.98,3.72,9.5,8.81,.63,6.12-3.83,11.04-9.21,11.1-2.8,0-3.89-.97-4.29-.97Zm.11-6.58c.4,.29,1.09,.46,1.77,.46,.63,0,1.2-.11,1.6-.29,1.14-.51,1.6-1.49,1.32-2.75-.23-1.09-1.03-1.72-1.89-1.72-1.43,0-2.57,1.66-2.92,2.86-.23,.69-.11,1.32,.11,1.43Z"/><path class="verde-claro" d="M146.02,86.02c-4.29,0-7.04-2.92-8.64-6.69-2.29-5.21-1.43-13.62,1.83-18.53,2.4-3.49,5.72-4.86,9.78-4.86,.92,0,1.77,.06,2.12,.23,.11,.06,.17,.06,.23,.06,.17,0,.23-.06,.34-.17s.29-.17,1.14-.17c.46,0,1.14,.06,2.12,.06,3.6,.11,3.83,.17,4.06,.57,.23,.46,.23,10.01,.63,18.94,.29,6.52,.23,9.67-.17,10.13-.17,.17-.34,.23-1.72,.23h-3.78c-2.63,0-2.35-.17-2.52-2.46-.97,1.6-2.8,2.69-5.43,2.69Zm-.06-9.67c.34,.17,.8,.29,1.26,.29,.8,0,1.77-.29,2.4-1.14l.4-.51c0-3.55-.06-9.67-.23-9.95-.06-.11-.23-.11-.46-.11-.46,0-1.26,.17-1.89,.51-4.86,2.35-3.72,9.67-1.49,10.93Z"/><path class="verde-claro" d="M9.33,78.71c0,.53-.12,7.78-.47,8.13-.18,.18-2.4,.35-4.39,.35-1.4,0-2.75-.06-3.04-.23,.06,0-.41-.12-.7-.59-.53-.82-.29-29.91,.18-30.37,.23-.23,.76-.23,5.03-.23h1.81c4.21,0,8.49,.18,11.35,3.04,5.27,5.27,1.81,14.28-1.87,17.15-2.63,2.11-5.09,2.52-7.9,2.75Zm2.16-7.49c2.28-.64,3.86-5.44,1.35-7.2-1.05-.7-2.28-.7-3.51-.7v8.19c.53-.06,1.46-.12,2.16-.29Z"/><path class="verde-claro" d="M133.31,86.23c-8.97,0-11.73,.11-12.91,.11-.73,0-.9-.06-1.52-.17-.34-.11-.73-.79-.79-1.52-.17-1.52-.28-28.42,.17-29.5,.17-.51,.85-.56,3.95-.56,3.84,.06,3.55-.11,3.72,2.76,.11,2.6-.06,5.98-.28,21.71,4.23-.11,6.77-.22,8.29-.22,1.24,0,1.75,.06,1.92,.22,.51,.39,.62,.96,.62,3.83,0,3.1,.22,3.33-1.81,3.33h-1.35Z"/></g><g><g><path class="verde-oscuro" d="M8.98,10.31c.51,.4,5.61,11.38,6.46,11.9,.4,.29,5.26-9.84,7.04-11.84,.29-.34,.34-.34,3.49-.34,1.89,0,3.38,.06,3.6,.17,.69,.23,.92,.69,.63,5.09-.29,3.26-.57,26.03-.8,26.54-.06,.11-.29,.34-.51,.4s-1.72,.11-3.2,.11-2.97-.06-3.2-.11c-.97-.4-.8-1.2-.92-14.53-4.63,6.52-4.58,6.35-6.01,7.27-1.95-1.26-3.55-3.89-6.12-7.89-.63,14.13,.57,14.59-1.37,15.05-.34,.06-1.2,.11-2.17,.11-1.54,0-3.32-.11-3.6-.23-.34-.11-.69-.86-.74-1.54-.17-1.72-.23-28.77,.17-29.92,.17-.4,.69-.51,2.75-.51h1.26c2.63,0,3.03,.06,3.26,.29Z"/><path class="verde-oscuro" d="M41.59,42.35c-4.29,0-7.04-2.92-8.64-6.69-2.29-5.21-1.43-13.62,1.83-18.53,2.4-3.49,5.72-4.86,9.78-4.86,.92,0,1.77,.06,2.12,.23,.11,.06,.17,.06,.23,.06,.17,0,.23-.06,.34-.17s.29-.17,1.14-.17c.46,0,1.14,.06,2.12,.06,3.6,.11,3.83,.17,4.06,.57,.23,.46,.23,10.01,.63,18.94,.29,6.52,.23,9.67-.17,10.13-.17,.17-.34,.23-1.72,.23h-3.78c-2.63,0-2.35-.17-2.52-2.46-.97,1.6-2.8,2.69-5.43,2.69Zm-.06-9.67c.34,.17,.8,.29,1.26,.29,.8,0,1.77-.29,2.4-1.14l.4-.51c0-3.55-.06-9.67-.23-9.95-.06-.11-.23-.11-.46-.11-.46,0-1.26,.17-1.89,.51-4.86,2.35-3.72,9.67-1.49,10.93Z"/><path class="verde-oscuro" d="M72.93,31.19c-.34,.34-6.86,.34-7.04,.46-.17,.17,.17,10.01-.23,10.35-.17,.17-2.86,.23-4.86,.23-1.03,0-1.83,0-2.12-.06-1.32-.34-1.09-1.49-1.2-8.81-.17-14.13,.23-19.62,5.72-21.74,.8-.29,3.15-.46,5.21-.46,1.89,0,3.66,.11,3.95,.4,.51,.51,.34,1.6,.06,5.72-.06,.74-.17,1.43-.23,1.54-.11,.17-.57,.17-2.46,.17h-1.09c-2.29,0-2.69,.34-2.86,5.89,1.14-.23,3.2-.29,4.69-.29,.86,0,1.49,0,1.66,.06,.92,.23,1.03,.63,1.03,3.72,0,2.23,0,2.63-.23,2.8Z"/><path class="verde-oscuro" d="M83.57,30.39q-.06,0-.11,.06c-.17,.17,1.43,3.89,7.32,4.06,1.32,.06,1.77,.11,1.95,.29s.23,.8,.29,3.55q0,3.72-.92,3.95c-.34,.06-1.37,.17-2.63,.17-5.61,0-10.07-1.95-12.76-7.21-3.2-6.24-1.83-18.42,5.15-22.37,1.66-.97,3.78-1.43,5.72-1.43,5.09,0,8.98,3.72,9.5,8.81,.63,6.12-3.83,11.04-9.21,11.1-2.8,0-3.89-.97-4.29-.97Zm.11-6.58c.4,.29,1.09,.46,1.77,.46,.63,0,1.2-.11,1.6-.29,1.14-.51,1.6-1.49,1.32-2.75-.23-1.09-1.03-1.72-1.89-1.72-1.43,0-2.57,1.66-2.92,2.86-.23,.69-.11,1.32,.11,1.43Z"/></g><path class="verde-oscuro" d="M32.52,73.8q-.06,0-.11,.06c-.17,.17,1.43,3.89,7.32,4.06,1.32,.06,9.33-.29,9.5-.12s.32,1.58,.38,4.33c0,3.72,.85,3.59-.06,3.82-.34,.06-9.88-.08-11.13-.08-5.61,0-10.07-1.95-12.76-7.21-3.2-6.24-1.83-18.42,5.15-22.37,1.66-.97,3.78-1.43,5.72-1.43,5.09,0,8.98,3.72,9.5,8.81,.63,6.12-3.83,11.04-9.21,11.1-2.8,0-3.89-.97-4.29-.97Zm.11-6.58c.4,.29,1.09,.46,1.77,.46,.63,0,1.2-.11,1.6-.29,1.14-.51,1.6-1.49,1.32-2.75-.23-1.09-1.03-1.72-1.89-1.72-1.43,0-2.57,1.66-2.92,2.86-.23,.69-.11,1.32,.11,1.43Z"/><path class="verde-oscuro" d="M59.58,63.46c-.34,0-.69,.06-.92,.23-1.43,.92-1.2,3.49-1.37,21.97-.34,.29-.51,.51-1.09,.51h-.17c-7.21-.29-7.09,.11-7.44-.97-.11-.51-.34-20.25-.06-28.95,.92-.46,2.57-.63,4.18-.63,2.06,0,4,.23,4.18,.34,.4,.23,.57,1.03,.69,.97,1.49-.74,2.52-1.03,4.06-1.03,2.46,0,4.58,.4,6.35,2.35,2.52,2.69,2.86,4.81,2.92,18.88,0,9.44,.11,8.12-.34,8.52-.29,.23-.57,.29-3.72,.29-3.66,0-4.23-.11-4.46-.69s0-16.7-.57-19.16c-.23-.97-.8-1.95-1.32-2.35-.23-.23-.57-.29-.92-.29Zm-.51-8.87c-.06,0-.86,.06-1.77,.11-.51,.06-.86,.06-1.09,.06-.46,0-.63-.06-.74-.17-.29-.29-.4-1.43-.34-3.03,.23-2.63,.46-6.01,3.83-6.01,2.29,0,3.32,.97,3.95,3.09,.34,1.03,.8,1.77,1.03,1.6,.17-.11,.4-1.43,.4-2.86,0-1.26,0-1.43,.23-1.54,.11-.06,.46-.11,.92-.11,1.2,0,2.97,.17,3.09,.4,.17,.23,0,4.06-.23,5.15-.51,2.23-2.06,3.43-4.46,3.43-4.29,0-2.97-4.52-3.95-4.52-1.09,0-.63,3.83-.86,4.4Z"/><path class="verde-oscuro" d="M94.07,85.04c-.17,.17-3.2,.34-5.15,.34-.92,0-1.6-.06-1.6-.11-1.09-.4-.74-1.49-.86-1.49-.17,0-2.46,1.37-5.26,1.37-.92,0-1.83-.11-2.75-.46-5.49-2-5.55-7.09-5.72-12.87-.11-4.81,.11-16.25,.34-16.53,.17-.23,1.77-.23,6.81-.34l.23,.34c.46,.69,.17,18.42,.4,19.74,.23,1.6,1.2,2.57,2.86,2.57,3.2,0,2.75-3.03,2.97-10.41,.34-12.18-.4-11.78,.51-12.18,.34-.11,.8-.17,2.12-.17h1.6c2.86,0,3.26,.06,3.43,.29,.46,.4,.34,29.69,.06,29.92Z"/><path class="verde-oscuro" d="M104.48,73.26q-.06,0-.11,.06c-.17,.17,1.43,3.89,7.32,4.06,1.32,.06,1.77,.11,1.95,.29s.23,.8,.29,3.55q0,3.72-.92,3.95c-.34,.06-1.37,.17-2.63,.17-5.61,0-10.07-1.95-12.76-7.21-3.2-6.24-1.83-18.42,5.15-22.37,1.66-.97,3.78-1.43,5.72-1.43,5.09,0,8.98,3.72,9.5,8.81,.63,6.12-3.83,11.04-9.21,11.1-2.8,0-3.89-.97-4.29-.97Zm.11-6.58c.4,.29,1.09,.46,1.77,.46,.63,0,1.2-.11,1.6-.29,1.14-.51,1.6-1.49,1.32-2.75-.23-1.09-1.03-1.72-1.89-1.72-1.43,0-2.57,1.66-2.92,2.86-.23,.69-.11,1.32,.11,1.43Z"/><path class="verde-oscuro" d="M147.44,85.22c-4.29,0-7.04-2.92-8.64-6.69-2.29-5.21-1.43-13.62,1.83-18.53,2.4-3.49,5.72-4.86,9.78-4.86,.92,0,1.77,.06,2.12,.23,.11,.06,.17,.06,.23,.06,.17,0,.23-.06,.34-.17s.29-.17,1.14-.17c.46,0,1.14,.06,2.12,.06,3.6,.11,3.83,.17,4.06,.57,.23,.46,.23,10.01,.63,18.94,.29,6.52,.23,9.67-.17,10.13-.17,.17-.34,.23-1.72,.23h-3.78c-2.63,0-2.35-.17-2.52-2.46-.97,1.6-2.8,2.69-5.43,2.69Zm-.06-9.67c.34,.17,.8,.29,1.26,.29,.8,0,1.77-.29,2.4-1.14l.4-.51c0-3.55-.06-9.67-.23-9.95-.06-.11-.23-.11-.46-.11-.46,0-1.26,.17-1.89,.51-4.86,2.35-3.72,9.67-1.49,10.93Z"/><path class="verde-oscuro" d="M10.75,77.9c0,.53-.12,7.78-.47,8.13-.18,.18-2.4,.35-4.39,.35-1.4,0-2.75-.06-3.04-.23,.06,0-.41-.12-.7-.59-.53-.82-.29-29.91,.18-30.37,.23-.23,.76-.23,5.03-.23h1.81c4.21,0,8.49,.18,11.35,3.04,5.27,5.27,1.81,14.28-1.87,17.15-2.63,2.11-5.09,2.52-7.9,2.75Zm2.16-7.49c2.28-.64,3.86-5.44,1.35-7.2-1.05-.7-2.28-.7-3.51-.7v8.19c.53-.06,1.46-.12,2.16-.29Z"/><path class="verde-oscuro" d="M134.72,85.42c-8.97,0-11.73,.11-12.91,.11-.73,0-.9-.06-1.52-.17-.34-.11-.73-.79-.79-1.52-.17-1.52-.28-28.42,.17-29.5,.17-.51,.85-.56,3.95-.56,3.84,.06,3.55-.11,3.72,2.76,.11,2.6-.06,5.98-.28,21.71,4.23-.11,6.77-.22,8.29-.22,1.24,0,1.75,.06,1.92,.22,.51,.39,.62,.96,.62,3.83,0,3.1,.22,3.33-1.81,3.33h-1.35Z"/></g><g><path class="otro" d="M133.09,0c-13.4,0-24.27,10.87-24.27,24.27s10.87,24.27,24.27,24.27,24.27-10.87,24.27-24.27S146.49,0,133.09,0Zm0,46.6c-12.33,0-22.33-10-22.33-22.33S120.75,1.94,133.09,1.94s22.33,10,22.33,22.33-10,22.33-22.33,22.33Z"/><g><path class="verde-oscuro" d="M117.34,36.3s.93-1.23,1.29-2.06c.23,.07,.16,2.78-1.42,5.31,.7,.33,2.08-1.78,3.63-2.84,2.92-1.95,7.1-2.18,8.58-3.91,.6-.57,.49-2.8,.49-2.95-2.96-1.19-6.08-4-6.94-7.05-1.03-4.93,.05-6.15,.05-6.15,0,0-1.1-2.96-.6-3.5,.46-.49,2.97-.1,2.97-.1,0,0-.04-.8,.17-.92s.25,.9,.68,.66c.74-.69,2.86-2.17,3.34-1.97,1.47,2.02,6.22,3.37,6.33,3.36,4.01-1.59,7.15-1.31,7.57-1.04s-.37,2.89-.34,2.91c.6-.33,1.09-.18,1.52,.17s.28,1.04,.2,1.35-.97,2.88-2.5,2.72c-.17,2.7-1.73,5.18-2.44,6.13s-3.41,2.72-4.21,3.11c.03,.25,0,.96,.34,2.33,.13,.5,.42,.95,.83,1.27,1.99,1.53,4.94,1.46,7.22,2.2,.44,.14,.86,.35,1.25,.61,1.94,1.32,3.29,2.67,3.52,2.69-1.49-2.84-1.95-7.84-1.8-7.95,.36,.42,.9,.43,1.01,.37-.68-1.38-.81-2.41-.73-3.39,.48-2.07,.5-3.85,.27-5.82s-2.18-5.7-2.34-6.18,.21-.5,.09-.82-.68-.16-.96-.64c-.77-3.51-1.41-4.67-4.31-6.92s-12.25-3.68-17,.82-3.92,8.44-4.12,9.12-1.17,1.52-1.02,1.82,1.02,.1,.85,.47c-1.2,4.24-1.93,4.69-1.4,7.57,.75,3.52,.68,4.7,.7,5.77s-.78,3.47-.78,3.47Z"/><g><path class="otro2" d="M149.16,38.43c-.75-1.43-1.2-3.36-1.45-4.72-.21-1.16-.31-2.07-.34-2.58,.1,.05,.2,.08,.28,.1,.19,.05,.45,.06,.61-.03,.12-.07,.17-.23,.1-.35-.57-1.16-.79-2.13-.71-3.23,.44-1.91,.52-3.67,.28-5.89-.17-1.54-1.35-4.06-1.98-5.41-.18-.39-.34-.72-.37-.82-.05-.15-.02-.2,.03-.29,.06-.11,.16-.28,.06-.55-.1-.27-.35-.35-.55-.41-.17-.05-.32-.1-.41-.24-.37-1.66-.73-2.9-1.38-3.97-.6-.99-1.45-1.84-3.02-3.06-1.58-1.23-4.79-2.1-7.97-2.18-1.8-.04-3.49,.16-5.02,.61-1.75,.51-3.21,1.32-4.36,2.41-1.73,1.64-2.93,3.4-3.57,5.24-.53,1.52-.57,2.74-.59,3.46,0,.23-.01,.45-.04,.53-.08,.28-.34,.61-.56,.91-.33,.44-.6,.79-.44,1.1,.13,.26,.44,.31,.69,.35,.04,0,.08,.01,.12,.02-.32,1.14-.61,2.01-.85,2.71-.63,1.89-.92,2.76-.53,4.9,0,0,0,0,0,0,.67,3.12,.68,4.36,.69,5.36,0,.12,0,.24,0,.35,.02,1-.76,3.35-.77,3.37-.04,.13,.01,.26,.13,.32,.12,.06,.26,.03,.34-.08,.03-.04,.48-.64,.88-1.29-.02,.26-.07,.59-.15,.97-.17,.81-.53,2.03-1.31,3.27-.04,.07-.05,.15-.03,.22,.02,.07,.07,.14,.14,.17,.09,.04,.18,.06,.27,.06,.29,0,.58-.19,.79-.35,.33-.25,.7-.62,1.09-1.02,.53-.53,1.13-1.14,1.75-1.56,1.35-.9,2.94-1.41,4.49-1.91,.86-.28,1.68-.54,2.38-.86,.81-.36,1.37-.74,1.75-1.18,.42-.41,.6-1.4,.57-3.04,0-.04,0-.07,0-.08,0-.11-.06-.22-.17-.26-1.47-.59-2.95-1.57-4.17-2.77-1.31-1.29-2.21-2.7-2.61-4.09-.51-2.43-.48-3.91-.37-4.73,.12-.84,.34-1.15,.36-1.18,.09-.1,.09-.25,0-.35,0,0-.27-.33-.47-.89-.27-.75-.29-1.54-.08-2.36,.01-.01,.18-.22,1.32-.23,.66,0,1.29,.06,1.3,.06,.14,.01,.27-.07,.29-.21,0-.01,.03-.09,.09-.15,.12,.08,.37,.23,.76,.01,.02-.01,.04-.02,.05-.04,.34-.32,1-.76,1.65-1.11,.76-.41,1.15-.5,1.3-.51,.36,.46,.9,.92,1.6,1.36,.59,.37,1.31,.74,2.12,1.08,.75,.32,1.42,.55,1.85,.69,.28,.09,.48,.15,.6,.18,.26,.07,.3,.07,.35,.07,.02,0,.04,0,.07-.02,1.7-.67,3.46-1.14,4.97-1.33,.64-.08,1.2-.1,1.62-.06,.46,.04,.59,.14,.62,.16,.18,1.26,.08,2.22-.27,2.65-.03,.04-.1,.13-.08,.26,.02,.08,.07,.15,.14,.19,.08,.04,.17,.04,.25,0,.44-.24,.81-.19,1.21,.14,.3,.26,.18,.84,.11,1.07-.05,.19-.29,.86-.68,1.46-.22,.35-.46,.62-.7,.8-.28,.21-.55,.29-.83,.26-.07,0-.15,.02-.2,.06-.06,.05-.09,.12-.09,.19-.07,1.14-.41,2.36-.99,3.62-.55,1.17-1.15,2.04-1.39,2.36-.66,.88-3.29,2.62-4.12,3.03-.1,.05-.16,.16-.15,.27,0,.04,0,.1,.01,.18,.02,.37,.05,1.05,.34,2.19,.14,.56,.47,1.06,.93,1.41,1.36,1.05,3.11,1.37,4.81,1.68,.89,.16,1.72,.31,2.49,.56,.42,.13,.81,.33,1.18,.58,1.09,.74,2.01,1.51,2.62,2.01,.68,.56,.86,.71,1.04,.73,.1,0,.19-.04,.25-.12,.05-.08,.06-.19,.01-.27Zm-.95-.75c-.62-.51-1.54-1.29-2.66-2.04-.41-.28-.85-.5-1.32-.65-.8-.26-1.69-.42-2.56-.58-1.63-.3-3.33-.61-4.58-1.57-.36-.28-.62-.68-.74-1.12-.28-1.09-.3-1.73-.32-2.08,0,0,0-.02,0-.03,.44-.24,1.21-.72,2.02-1.29,.74-.53,1.72-1.27,2.13-1.82,.25-.33,.88-1.23,1.45-2.45,.57-1.23,.92-2.43,1.02-3.56,.32-.02,.63-.15,.93-.37,.29-.22,.57-.54,.83-.94,.5-.79,.74-1.6,.74-1.61,.21-.73,.1-1.31-.28-1.63-.37-.31-.75-.45-1.15-.42,.2-.6,.23-1.45,.07-2.5-.02-.11-.08-.28-.3-.4-.23-.13-.6-.21-1.1-.22-.48-.01-1.08,.03-1.73,.12-1.46,.21-3.14,.67-4.74,1.3-.27-.06-1.37-.39-2.63-.93-1.7-.73-2.89-1.53-3.46-2.31-.03-.04-.07-.07-.11-.09-.18-.08-.44-.05-.8,.07-.27,.09-.61,.24-.97,.44-.69,.37-1.38,.83-1.77,1.18-.09,.05-.11,.03-.18-.01-.09-.06-.27-.17-.5-.05-.15,.08-.25,.2-.31,.31-.26-.02-.73-.05-1.22-.05-.43,0-.78,.04-1.05,.1-.16,.04-.63,.14-.73,.53-.31,1.17-.11,2.12,.1,2.71,.15,.4,.32,.7,.44,.87-.11,.2-.26,.56-.35,1.17-.09,.55-.11,1.21-.07,1.94,.05,.91,.19,1.94,.43,3.08,0,0,0,.01,0,.02,.42,1.48,1.38,2.99,2.76,4.34,1.23,1.2,2.7,2.2,4.18,2.82,.03,1.93-.28,2.44-.41,2.57,0,0-.01,.01-.02,.02-.33,.39-.83,.72-1.57,1.05-.68,.3-1.48,.56-2.33,.84-1.51,.49-3.21,1.04-4.62,1.98,0,0,0,0,0,0-.66,.45-1.28,1.07-1.83,1.63-.38,.38-.74,.74-1.03,.97-.02,.02-.05,.03-.07,.05,.59-1.1,.89-2.14,1.05-2.86,.19-.89,.24-1.74,.12-2.06-.06-.15-.15-.2-.22-.23-.03,0-.05-.01-.08-.01-.11,0-.2,.06-.25,.16-.08,.18-.18,.37-.29,.57,.17-.67,.31-1.39,.3-1.87,0-.11,0-.23,0-.35-.01-1.02-.02-2.3-.7-5.47-.37-2-.11-2.77,.51-4.62,.24-.72,.54-1.61,.88-2.8,.07-.16,.03-.28,0-.36-.11-.2-.35-.24-.57-.27-.07-.01-.19-.03-.26-.05,.05-.13,.24-.37,.36-.54,.25-.34,.54-.72,.65-1.08,.04-.15,.05-.36,.06-.67,.04-1.39,.12-4.65,3.99-8.33,1.08-1.03,2.48-1.8,4.14-2.28,1.48-.43,3.11-.63,4.86-.59,1.55,.04,3.12,.26,4.53,.66,1.32,.37,2.42,.87,3.12,1.41,1.51,1.17,2.32,1.99,2.89,2.91,.62,1.01,.96,2.22,1.32,3.85,0,.03,.02,.05,.03,.08,.2,.35,.53,.45,.74,.52,.07,.02,.18,.05,.2,.08,0,0,0,0,0,0t-.03,.1c-.07,.13-.19,.34-.07,.71,.04,.13,.16,.39,.39,.89,.62,1.33,1.77,3.8,1.93,5.25,.24,2.16,.16,3.87-.27,5.73,0,.01,0,.03,0,.04-.04,.57-.02,1.09,.09,1.62,.09,.49,.25,.98,.48,1.5-.12-.04-.26-.12-.37-.25-.09-.11-.25-.12-.37-.04-.13,.1-.14,.26-.13,.48,0,.17,.01,.39,.04,.65,.05,.61,.15,1.35,.28,2.09,.21,1.17,.55,2.74,1.1,4.11-.01,0-.02-.02-.04-.03Z"/><path class="otro2" d="M121.12,27.8c-.29-.95-.49-1.94-.61-2.93-.04-.34-.07-.7-.09-1.05-.04-.8-.01-1.61,.12-2.4,.14-.88,.41-1.72,.77-2.53-1.12,1.58-1.48,3.48-1.38,5.39,.07,1.25,.31,2.5,.73,3.68,.17,.44,.33,.88,.41,1.34,.09,.51,.1,1.04,.03,1.55-.02,.13-.04,.28-.07,.42-.06,.31-.15,.62-.26,.92,.45-.74,.7-1.62,.7-2.5,0-.3-.03-.6-.08-.89-.06-.34-.17-.67-.28-1Z"/><path class="otro2" d="M126.74,31.59c.12-.49,.07-1.03-.19-1.46-.07-.12-.16-.23-.26-.32,0,.25,.02,.51,.01,.76,0,.23-.02,.46-.05,.69-.05,.38-.14,.75-.24,1.12-.03,.09-.06,.19-.08,.29,.42-.21,.69-.64,.81-1.09Z"/><path class="otro2" d="M140.03,30.97c0-.22-.01-.46-.06-.68-.13-.55-.5-1.05-1.01-1.31,.06,.13,.13,.26,.19,.4,.14,.3,.24,.6,.29,.92,.06,.35,.03,.72,.12,1.08,.11,.47,.36,.91,.73,1.21-.06-.24-.12-.48-.16-.72-.06-.31-.09-.61-.1-.92Z"/><path class="otro2" d="M143.19,23.01c-.16,.39-.25,.81-.29,1.23-.14,1.43,.33,2.92,1.25,4.02,.4,.47,.87,.88,1.42,1.17-.39-.45-.76-.92-1.07-1.42-.99-1.56-1.33-3.17-1.31-5Z"/><path class="otro2" d="M135.99,10.57c-.56-.26-1.09-.58-1.59-.93-.45-.32-.89-.7-1.3-1.07,.9,1.83,2.99,3.01,5.01,2.99,.29,0,.58-.03,.86-.09,0,0-.42-.08-.42-.08-.88-.18-1.75-.43-2.56-.82Z"/><path class="otro2" d="M124.97,8.3c.26-.08,.52-.19,.76-.29,.47-.21,.94-.44,1.39-.69,.2-.11,.41-.23,.61-.37,.03-.02,.06-.04,.09-.06-.04,0-.07-.01-.11-.02-1.01-.09-2.25,.53-2.74,1.43Z"/></g><g><path class="otro2" d="M130.02,16.98s-.06,.04-.09,.06c-.33,.21-.93,.6-1.92,.58-.4,0-.76-.09-1.09-.21-.02-.01-.05-.02-.07-.03-.48-.18-.85-.42-1.04-.54h0c-.12-.09-.29-.05-.37,.07-.08,.12-.05,.29,.08,.37h0c.19,.13,.54,.35,1,.55-.01,.13-.04,.28-.08,.35-.08,.13-.04,.29,.09,.37,.04,.03,.09,.04,.14,.04,.09,0,.18-.05,.23-.13,.08-.13,.12-.29,.14-.45,.13,.04,.26,.07,.4,.09,0,.09,0,.17-.02,.23-.05,.14,.02,.29,.16,.34,.03,.01,.06,.02,.09,.02,.11,0,.22-.07,.25-.18,.04-.11,.05-.24,.05-.35,0,0,0,0,.01,0,.03,0,.06,0,.09,0,.21,0,.4-.02,.58-.04,.03,.1,.08,.18,.12,.25,.05,.09,.14,.13,.23,.13,.05,0,.09-.01,.14-.04,.13-.08,.17-.24,.1-.37-.02-.03-.03-.06-.05-.09,.47-.15,.8-.36,1.02-.5,.03-.02,.06-.04,.08-.05,.13-.08,.17-.24,.09-.37-.08-.13-.24-.17-.37-.09Z"/><path class="otro2" d="M135,17.27c.27,.16,.69,.32,1.22,.41,0,.16,0,.32-.03,.37-.07,.13-.02,.29,.11,.36,.04,.02,.08,.03,.13,.03,.1,0,.19-.05,.24-.14,.07-.13,.09-.36,.09-.55,.15,.01,.3,.02,.46,.02,.03,0,.06,0,.09,0,0,.13-.01,.25-.02,.28-.04,.14,.05,.29,.19,.33,.02,0,.05,0,.07,0,.12,0,.23-.08,.26-.2,.02-.08,.03-.22,.04-.47,.21-.03,.4-.08,.58-.15l.11,.28c.04,.11,.14,.17,.25,.17,.03,0,.07,0,.1-.02,.14-.06,.21-.21,.15-.35l-.12-.29c.34-.17,.61-.36,.79-.49,.04-.03,.07-.05,.09-.07,.12-.08,.15-.25,.07-.38-.08-.12-.25-.15-.38-.07-.03,.02-.06,.04-.1,.07-.35,.25-1.06,.76-2.04,.78-.97,.03-1.73-.21-2.09-.43-.13-.08-.29-.03-.37,.1-.08,.13-.03,.29,.1,.37Z"/><path class="otro2" d="M132.1,21.38c.25,.13,.59,.2,.93,.2,.06,0,.12,0,.18,0,.5-.04,.88-.25,1.06-.58,.07-.13,.02-.29-.11-.37-.13-.07-.29-.02-.37,.11-.17,.3-.74,.36-1.17,.27,.54-.96,.39-1.96,.39-2.01-.02-.15-.16-.25-.31-.23-.15,.02-.25,.16-.23,.31,0,.01,.15,1.06-.48,1.91-.05,.06-.06,.14-.05,.22,.02,.08,.07,.14,.14,.18Z"/><path class="otro2" d="M135.74,24.67c.09-.12,.07-.29-.05-.38-.12-.09-.29-.07-.38,.05-.25,.33-.79,.92-1.69,1.21-.77,.25-1.46,.17-1.9,.06-.14-.04-.29,.05-.33,.2s.05,.29,.2,.33c.26,.07,.6,.12,.98,.12s.78-.05,1.22-.19c1.04-.34,1.67-1.02,1.96-1.4Z"/><path class="otro2" d="M147.62,38.58c-.16-.54-.37-1.03-.64-1.45-.34-.54-.76-.97-1.25-1.28-.74-.47-2.05-.95-3.9-1.43-1.3-.34-2.42-.56-2.54-.58-1.34-.35-2.11-.64-2.59-1.21-.25-.3-.43-.67-.54-1.17-.11-.49-.17-1.12-.18-1.92,3.49-1.76,4.31-3.21,5.05-4.52,.05-.09,.11-.19,.16-.29,0,0,0,0,0-.01,.02-.04,.05-.09,.09-.15,.24-.43,.75-1.31,1.06-2.87,.08-.38,.14-.78,.18-1.19,.02,0,.05,0,.07,0,.24,0,.49-.07,.73-.22,.46-.28,.91-.83,1.32-1.62,.31-.6,.51-1.16,.54-1.31,.11-.53,.05-.96-.19-1.27-.22-.3-.57-.47-1.05-.51-.56-.05-1.08,.12-1.5,.51-.02,.01-.03,.03-.05,.04-.05-.38-.11-.77-.19-1.17,0-.03-.02-.06-.03-.09-.08-.14-.23-.17-.44-.19-.15-.02-.36-.04-.62-.06-2.08-.18-7.62-.66-11.17-4.21-.02-.02-.04-.03-.06-.05-.23-.13-.57-.08-1.05,.15-.32,.15-.72,.39-1.19,.71-.78,.53-1.47,1.09-1.5,1.12,0,0,0,0,0,0-.02-.01-.04-.02-.05-.03-.12-.08-.28-.18-.49-.15-.05,0-.1,.03-.14,.07-.16,.14-.19,.31-.22,.42,0,.02,0,.03,0,.04,0,0-.02,0-.02,0-.21-.04-.36-.07-.48,.06-1.33,1.47-2.2,3.41-2.45,5.47-.28,2.27,.2,4.58,1.38,6.67,0,0,0,0,0,0,1.32,2.16,3.47,3.64,5.05,4.5,.35,.19,.7,.37,1.03,.52,.1,.47,.12,.92,.06,1.34-.07,.45-.23,.86-.47,1.22-.25,.37-.6,.7-1.03,.97-.45,.28-.98,.51-1.6,.67,0,0,0,0,0,0-.01,0-1.05,.29-2.29,.7-1.68,.56-2.9,1.08-3.63,1.55-.49,.31-.92,.75-1.27,1.3-.27,.43-.5,.94-.67,1.5-.29,.95-.33,1.73-.33,1.76,0,.15,.11,.27,.26,.28,0,0,0,0,.01,0,.14,0,.26-.11,.27-.26,0,0,.04-.76,.31-1.64,.16-.51,.37-.97,.61-1.36,.3-.48,.67-.86,1.1-1.13,1.44-.91,4.67-1.87,5.55-2.12,.88,.6,1.85,1.05,2.87,1.35,.93,.27,1.92,.42,2.94,.43,.06,0,.12,0,.18,0,2.15,0,3.83-.57,4.66-.92,.53-.22,.99-.47,1.33-.72,.24-.17,.41-.34,.51-.49,.02,0,.04,.01,.06,.02,0,0,.01,0,.02,0,.05,0,4.59,.88,6.25,1.94,.42,.27,.79,.64,1.08,1.1,.24,.38,.43,.82,.58,1.31,.25,.84,.26,1.55,.26,1.56,0,.15,.12,.27,.27,.27,0,0,0,0,0,0,.15,0,.27-.12,.27-.27,0-.03-.01-.78-.28-1.69Zm-4.8-22.13c.31-.28,.67-.4,1.07-.36,.32,.03,.55,.13,.67,.3,.14,.18,.17,.47,.09,.84-.02,.08-.18,.58-.49,1.17-.36,.7-.75,1.19-1.13,1.41-.16,.1-.32,.15-.47,.14,.06-.96,.04-2-.07-3.1,.05-.08,.16-.25,.33-.41Zm-13.86,12.45c-.99-.54-1.88-1.15-2.66-1.81-.92-.78-1.65-1.62-2.19-2.5-1.12-1.99-1.57-4.18-1.31-6.34,.23-1.91,1.02-3.7,2.23-5.08,.02,0,.05,0,.06,.01,.21,.04,.36,.07,.47-.06,.14-.15,.17-.3,.19-.41,0,0,0,0,0,0,0,0,.01,0,.02,.01,.07,.04,.15,.09,.24,.13,.21,.07,.4-.07,.46-.14,.08-.07,.72-.58,1.42-1.06,.43-.3,.8-.52,1.1-.66,.38-.18,.54-.19,.59-.19,3.7,3.65,9.34,4.14,11.47,4.32,.25,.02,.5,.04,.64,.06,.42,2.44,.46,4.58,.1,6.39-.29,1.47-.77,2.3-1,2.7-.04,.07-.07,.12-.09,.17-.05,.09-.11,.19-.16,.28-.44,.79-.9,1.6-1.99,2.51-1.25,1.05-3.14,2.06-5.79,3.09-.55-.02-2.13-.52-3.81-1.44Zm.81,3.86c.5-.74,.69-1.63,.56-2.6,1.09,.46,2.03,.72,2.48,.72,0,0,0,0,.01,0,.03,0,.06,0,.09-.02,.96-.37,1.79-.73,2.52-1.08,.02,.73,.08,1.3,.19,1.78,.14,.58,.35,1.04,.66,1.4,.13,.15,.27,.28,.43,.41-.16,.09-.39,.19-.7,.31-.42,.15-1.11,.35-2.01,.46-.88,.11-1.73,.1-2.54-.02-.82-.12-1.58-.36-2.27-.71,.22-.2,.41-.42,.57-.66Zm7.98,1.96c-.23-.32-.59-.57-.59-.57-.08-.05-.18-.03-.23,.05-.05,.08-.03,.18,.05,.23,0,0,.13,.09,.27,.23,.08,.08,.15,.15,.2,.22-.12,.06-.25,.12-.39,.18-.35,.15-.86,.34-1.5,.5,0-.02,0-.05-.01-.07-.06-.29-.17-.51-.31-.65-.07-.07-.17-.07-.24,0s-.07,.17,0,.24c.13,.13,.2,.36,.23,.56-.28,.06-.57,.12-.89,.17-.07-.52-.24-.78-.38-.91-.07-.06-.17-.06-.24,0-.06,.07-.06,.17,0,.24,.13,.12,.23,.37,.27,.71-.49,.06-1.01,.09-1.57,.08-.16,0-.32,0-.48-.02,.01-.22,.01-.53-.05-.74-.03-.09-.12-.14-.21-.11-.09,.03-.14,.12-.11,.21,.05,.16,.05,.41,.04,.62-.68-.06-1.35-.18-1.98-.37-.03,0-.06-.02-.09-.03,.14-.14,.2-.24,.17-.34-.02-.09-.12-.14-.21-.12-.06,.02-.11,.07-.12,.13-.03,.04-.11,.13-.21,.21-.66-.23-1.29-.52-1.88-.89,.48-.16,.91-.36,1.29-.6,.05-.03,.1-.07,.15-.1,.07,.04,.13,.07,.2,.11-.19,.2-.44,.5-.48,.8-.01,.09,.05,.18,.15,.19,0,0,.01,0,.02,0,.08,0,.16-.06,.17-.15,.02-.13,.12-.31,.3-.51,.06-.07,.12-.12,.16-.17,.45,.2,.93,.37,1.43,.48-.02,.09-.05,.19-.08,.29-.04,.16-.08,.29-.1,.39-.04,.17-.06,.29,.05,.36,.03,.02,.06,.03,.09,.03,.05,0,.11-.03,.14-.07,.03-.04,.03-.08,.03-.13,.01-.1,.1-.45,.2-.8,.12,.02,.24,.04,.36,.06,.38,.06,.76,.09,1.15,.1,.04,.24,.18,.38,.19,.39l.23-.25h0s-.05-.05-.08-.13c.39,0,.79-.03,1.19-.08,.66-.08,1.22-.21,1.65-.33,.17,.26,.3,.51,.3,.58,0,.09,.07,.17,.16,.17,0,0,0,0,0,0,.09,0,.17-.07,.17-.16,0-.09-.02-.24-.25-.6-.02-.03-.04-.07-.06-.1,.05-.02,.1-.03,.15-.05,.27-.09,.7-.27,.99-.47,.29,.24,.58,.49,.67,.59,.02,.07,.07,.13,.14,.16,.04,.02,.08,.03,.12,.03-.11,.07-.23,.14-.37,.22Zm.63-.41c.02-.07,.02-.13,0-.19,.05,.02,.1,.03,.16,.05-.04,.04-.09,.09-.16,.14Z"/></g><path class="lila" d="M143.53,13.1c-3.53-.99-8.89,1.58-9.26,1.88-.5,.4-.91,.37-1.22,.37-.31,0-.51,0-1.18-.4-1-.75-5.85-2.55-9.33-1.93-.63,3.2,2.87,7.76,5.73,7.8,2.76-.06,4.01-2.18,4.43-4.12,.17-.12,.58-.09,.65-.02,.87,3.46,2.67,4.04,4.64,4.08,1.67,.01,5.8-2.36,5.54-7.65Zm-14.35,6.88c-.45,.1-.91,.08-1.35-.05-2.59-.81-3.09-3.02-3.19-3.59-.02-.14-.03-.29,0-.44,.07-.43,.39-1.15,1.88-1.31,2.28-.27,5.28,1.61,5.48,1.72-.43,2.86-1.77,3.44-2.83,3.68Zm12.22-3.68c-.09,.58-.59,2.79-3.19,3.59-.44,.14-.9,.15-1.35,.05-1.06-.24-2.39-.82-2.83-3.68,.21-.11,3.21-1.99,5.48-1.72,1.49,.16,1.81,.88,1.88,1.31,.02,.14,.02,.29,0,.44Z"/><circle class="lila" cx="143.14" cy="19.02" r=".4"/></g></g></g></g></svg>
