<?xml version="1.0" encoding="UTF-8"?><svg id="Capa_2" xmlns="http://www.w3.org/2000/svg" viewBox="0 0 174.01 23.18"><defs><style>.cls-1{fill:#34524a;}</style></defs><g id="Capa_2-2"><g><g><path class="cls-1" d="M14.13,4.99c.29,.23,3.17,6.44,3.66,6.73,.23,.16,2.98-5.57,3.98-6.7,.16-.19,.19-.19,1.97-.19,1.07,0,1.91,.03,2.04,.1,.39,.13,.52,.39,.36,2.88-.16,1.84-.32,14.72-.45,15.01-.03,.06-.16,.19-.29,.23s-.97,.06-1.81,.06-1.68-.03-1.81-.06c-.55-.23-.45-.68-.52-8.22-2.62,3.69-2.59,3.59-3.4,4.11-1.1-.71-2.01-2.2-3.46-4.47-.36,7.99,.32,8.25-.78,8.51-.19,.03-.68,.06-1.23,.06-.87,0-1.88-.06-2.04-.13-.19-.06-.39-.49-.42-.87-.1-.97-.13-16.28,.1-16.92,.1-.23,.39-.29,1.55-.29h.71c1.49,0,1.71,.03,1.84,.16Z"/><path class="cls-1" d="M32.57,23.11c-2.43,0-3.98-1.65-4.89-3.79-1.29-2.94-.81-7.7,1.04-10.48,1.36-1.97,3.24-2.75,5.53-2.75,.52,0,1,.03,1.2,.13,.06,.03,.1,.03,.13,.03,.1,0,.13-.03,.19-.1s.16-.1,.65-.1c.26,0,.65,.03,1.2,.03,2.04,.06,2.17,.1,2.3,.32,.13,.26,.13,5.66,.36,10.71,.16,3.69,.13,5.47-.1,5.73-.1,.1-.19,.13-.97,.13h-2.14c-1.49,0-1.33-.1-1.42-1.39-.55,.91-1.59,1.52-3.07,1.52Zm-.03-5.47c.19,.1,.45,.16,.71,.16,.45,0,1-.16,1.36-.65l.23-.29c0-2.01-.03-5.47-.13-5.63-.03-.06-.13-.06-.26-.06-.26,0-.71,.1-1.07,.29-2.75,1.33-2.1,5.47-.84,6.18Z"/><path class="cls-1" d="M50.3,16.8c-.19,.19-3.88,.19-3.98,.26-.1,.1,.1,5.66-.13,5.86-.1,.1-1.62,.13-2.75,.13-.58,0-1.04,0-1.2-.03-.74-.19-.61-.84-.68-4.98-.1-7.99,.13-11.1,3.24-12.3,.45-.16,1.78-.26,2.94-.26,1.07,0,2.07,.06,2.23,.23,.29,.29,.19,.91,.03,3.24-.03,.42-.1,.81-.13,.87-.06,.1-.32,.1-1.39,.1h-.61c-1.29,0-1.52,.19-1.62,3.33,.65-.13,1.81-.16,2.65-.16,.49,0,.84,0,.94,.03,.52,.13,.58,.36,.58,2.1,0,1.26,0,1.49-.13,1.59Z"/><path class="cls-1" d="M56.31,16.35s-.03,0-.06,.03c-.1,.1,.81,2.2,4.14,2.3,.74,.03,1,.06,1.1,.16s.13,.45,.16,2.01q0,2.1-.52,2.23c-.19,.03-.78,.1-1.49,.1-3.17,0-5.69-1.1-7.22-4.08-1.81-3.53-1.04-10.42,2.91-12.65,.94-.55,2.14-.81,3.24-.81,2.88,0,5.08,2.1,5.37,4.98,.36,3.46-2.17,6.24-5.21,6.28-1.59,0-2.2-.55-2.43-.55Zm.06-3.72c.23,.16,.61,.26,1,.26,.36,0,.68-.06,.91-.16,.65-.29,.91-.84,.74-1.55-.13-.61-.58-.97-1.07-.97-.81,0-1.46,.94-1.65,1.62-.13,.39-.06,.74,.06,.81Z"/></g><g><path class="cls-1" d="M108.81,7.18c-1-1.1-2.2-1.33-3.59-1.33-.87,0-1.46,.16-2.3,.58-.06,.03-.16-.42-.39-.55-.1-.06-1.2-.19-2.36-.19-.91,0-1.84,.1-2.36,.36-.1,3.02-.09,8.39-.05,12.16-1.17,0-4.32,.12-4.93,.09-3.33-.1-4.24-2.2-4.14-2.3t.06-.03c.23,0,.84,.55,2.43,.55,3.04-.03,5.57-2.82,5.21-6.28-.29-2.88-2.49-4.98-5.37-4.98-1.1,0-2.3,.26-3.24,.81-3.95,2.23-4.72,9.12-2.91,12.65,1.52,2.98,4.04,4.08,7.22,4.08,.67,0,5.54,.07,6.22,.05,.45,.07,1.43,.03,3.74,.13h.1c.32,0,.42-.13,.61-.29,.1-10.45-.03-11.91,.78-12.42,.13-.1,.32-.13,.52-.13s.39,.03,.52,.16c.29,.23,.61,.78,.74,1.33,.32,1.39,.19,10.52,.32,10.84s.45,.39,2.52,.39c1.78,0,1.94-.03,2.1-.16,.26-.23,.19,.52,.19-4.82-.03-7.96-.23-9.16-1.65-10.68Zm-20.06,4.26c.19-.68,.84-1.62,1.65-1.62,.49,0,.94,.36,1.07,.97,.16,.71-.1,1.26-.74,1.55-.23,.1-.55,.16-.91,.16-.39,0-.78-.1-1-.26-.13-.06-.19-.42-.06-.81Z"/><path class="cls-1" d="M102.15,5.21c.13,0,.32,0,.61-.03,.52-.03,.97-.06,1-.06,.13-.32-.13-2.49,.49-2.49,.55,0-.19,2.56,2.23,2.56,1.36,0,2.23-.68,2.52-1.94,.13-.61,.23-2.78,.13-2.91-.06-.13-1.07-.23-1.75-.23-.26,0-.45,.03-.52,.06-.13,.06-.13,.16-.13,.87,0,.81-.13,1.55-.23,1.62-.13,.1-.39-.32-.58-.91-.36-1.2-.94-1.75-2.23-1.75-1.91,0-2.04,1.91-2.17,3.4-.03,.91,.03,1.55,.19,1.71,.06,.06,.16,.1,.42,.1Z"/><path class="cls-1" d="M121.59,5.25h-.91c-.74,0-1,.03-1.2,.1-.52,.23-.1,0-.29,6.89-.13,4.17,.13,5.89-1.68,5.89-.94,0-1.49-.55-1.62-1.46-.13-.74,.03-10.77-.23-11.16l-.13-.19c-2.85,.06-3.75,.06-3.85,.19-.13,.16-.26,6.63-.19,9.35,.1,3.27,.13,6.15,3.24,7.28,.52,.19,1.04,.26,1.55,.26,1.59,0,2.88-.78,2.98-.78,.06,0-.13,.61,.49,.84,0,.03,.39,.06,.91,.06,1.1,0,2.82-.1,2.91-.19,.16-.13,.23-16.7-.03-16.92-.1-.13-.32-.16-1.94-.16Z"/><path class="cls-1" d="M131.72,4.96c-1.1,0-2.3,.26-3.24,.81-3.95,2.23-4.72,9.12-2.91,12.65,1.52,2.98,4.04,4.08,7.22,4.08,.71,0,1.29-.06,1.49-.1q.52-.13,.52-2.23c-.03-1.55-.06-1.91-.16-2.01s-.36-.13-1.1-.16c-3.33-.1-4.24-2.2-4.14-2.3t.06-.03c.23,0,.84,.55,2.43,.55,3.04-.03,5.57-2.82,5.21-6.28-.29-2.88-2.49-4.98-5.37-4.98Zm-.29,7.09c-.23,.1-.55,.16-.91,.16-.39,0-.78-.1-1-.26-.13-.06-.19-.42-.06-.81,.19-.68,.84-1.62,1.65-1.62,.49,0,.94,.36,1.07,.97,.16,.71-.1,1.26-.74,1.55Z"/><path class="cls-1" d="M161.45,16.44c-.23-5.05-.23-10.45-.36-10.71-.13-.23-.26-.26-2.3-.32-.55,0-.94-.03-1.2-.03-.49,0-.58,.03-.65,.1s-.1,.1-.19,.1c-.03,0-.06,0-.13-.03-.19-.1-.68-.13-1.2-.13-2.3,0-4.17,.78-5.53,2.75-1.84,2.78-2.33,7.54-1.04,10.48,.91,2.14,2.46,3.79,4.89,3.79,1.49,0,2.52-.61,3.07-1.52,.1,1.29-.06,1.39,1.42,1.39h2.14c.78,0,.87-.03,.97-.13,.23-.26,.26-2.04,.1-5.73Zm-5.66,.03c-.36,.49-.91,.65-1.36,.65-.26,0-.52-.06-.71-.16-1.26-.71-1.91-4.85,.84-6.18,.36-.19,.81-.29,1.07-.29,.13,0,.23,0,.26,.06,.1,.16,.13,3.62,.13,5.63l-.23,.29Z"/><path class="cls-1" d="M75.55,5.32h-1.03c-2.42,0-2.71,0-2.85,.13-.26,.26-.4,16.72-.1,17.18,.17,.26,.43,.33,.4,.33,.17,.1,.93,.13,1.72,.13,1.13,0,2.38-.1,2.48-.2,.2-.2,.26-4.3,.26-4.6,1.59-.13,2.98-.36,4.47-1.56,2.09-1.62,4.04-6.72,1.06-9.7-1.62-1.62-4.04-1.72-6.42-1.72Zm2.12,8.74c-.4,.1-.93,.13-1.22,.17v-4.63c.69,0,1.39,0,1.99,.4,1.42,.99,.53,3.71-.76,4.07Z"/><path class="cls-1" d="M148,18.49c-.09-.1-.38-.13-1.08-.13-.86,0-2.3,.06-4.69,.13,.13-8.9,.22-10.81,.16-12.28-.09-1.63,.06-1.53-2.11-1.56-1.75,0-2.14,.03-2.23,.32-.26,.61-.19,15.82-.1,16.68,.03,.42,.26,.8,.45,.86,.35,.06,.45,.1,.86,.1,.67,0,2.23-.06,7.3-.06h.77c1.15,0,1.02-.13,1.02-1.88,0-1.63-.06-1.95-.35-2.17Z"/></g><path class="cls-1" d="M1.73,17.26c.43,.16,.88,.2,1.34,.23,.53,.03,1.06,.05,1.57-.07s1.01-.4,1.28-.85c.28-.45,.31-1.01,.32-1.54,.05-1.39-.03-2.71-1.23-3.6-1.02-.75-2.09-1-3.16-.23-1.89,1.36-2.94,5.02-.12,6.06Z"/><path class="cls-1" d="M170.14,17.11c.94,.06,1.95,.04,2.72-.5,.88-.62,1.23-1.79,1.13-2.86-.22-2.54-4.73-4.18-6.55-2.27-2.44,2.55-.29,5.45,2.69,5.63Z"/></g></g></svg>