<?xml version="1.0" encoding="UTF-8"?><svg id="Capa_2" xmlns="http://www.w3.org/2000/svg" viewBox="0 0 109.83 109.83"><defs><style>.cls-verde{fill:#34524a;}</style></defs><g id="Capa_2-2"><g><path class="cls-verde" d="M54.91,0C24.59,0,0,24.59,0,54.91s24.59,54.91,54.91,54.91,54.91-24.59,54.91-54.91S85.24,0,54.91,0Zm0,105.83c-28.12,0-50.92-22.8-50.92-50.92S26.79,3.99,54.91,3.99s50.92,22.8,50.92,50.92-22.8,50.92-50.92,50.92Z"/><g><path class="cls-verde" d="M23.81,36.57c-.15,.09-.32-.02-2.65-1.7-2.43-1.75-2.52-1.79-2.97-1.84-.31-.03-.48,.02-.61,.19-.21,.29-.12,.55,.33,.99,.65,.64,4.79,3.56,4.81,3.8,0,.06-.21,.37-.46,.72-.39,.53-.9,1.16-.97,1.22-.11,.05-.16,.06-.29,0-.16-.05-5.11-3.62-7.25-5.31,.05-.31,.32-.76,.61-1.16,.38-.51,.81-.97,.87-.99,.12-.04,.35,.06,.37,0,.08-.49,.2-.8,.48-1.19,.49-.66,.83-.98,1.69-1.16,.04-.65,.13-1.25,.78-2.14,.49-.66,.98-1.18,1.87-1.27,1.13-.16,1.74,.16,5.24,2.74,2.38,1.74,2.07,1.47,2.07,1.64,0,.14-.04,.21-.62,1-.67,.91-.79,1.05-.97,.98-.2-.06-4.17-3.08-4.91-3.39-.27-.11-.87-.22-1.09,.08-.05,.07-.08,.16-.09,.27-.02,.54,1.05,1.24,2.98,2.69,2.59,1.96,2.26,1.67,2.27,1.85,.01,.07,0,.13-.11,.27-.16,.21-1.3,1.67-1.37,1.68Z"/><path class="cls-verde" d="M30.5,29.49c-1.03,.85-2.26,.69-3.39,.11-1.58-.79-3.03-2.97-3.23-4.79-.12-1.31,.41-2.29,1.38-3.1,.22-.18,.44-.34,.55-.36,.04,0,.05-.02,.07-.03,.04-.03,.04-.06,.05-.11,0-.05,.03-.1,.24-.27,.11-.09,.28-.21,.52-.4,.88-.69,.95-.72,1.08-.67,.15,.06,2.03,2.35,3.89,4.4,1.36,1.5,1.97,2.27,1.96,2.46,0,.07-.04,.12-.37,.39l-.9,.75c-.63,.52-.6,.42-1.09-.09,.08,.58-.14,1.2-.77,1.72Zm-1.93-2.3c.12-.03,.25-.09,.36-.18,.19-.16,.37-.42,.35-.75v-.2c-.71-.85-1.93-2.3-2.03-2.34-.04-.02-.08,.02-.13,.06-.11,.09-.27,.29-.35,.5-.7,1.52,1.02,3.05,1.81,2.91Z"/><path class="cls-verde" d="M36.46,21.31c-.04,.15-1.79,1.16-1.82,1.22-.02,.07,1.6,2.66,1.55,2.82-.02,.07-.73,.51-1.27,.82-.28,.16-.49,.28-.58,.31-.41,.11-.52-.23-1.69-2.18-2.25-3.77-2.99-5.3-1.85-6.73,.17-.2,.77-.61,1.33-.93,.51-.29,1-.54,1.12-.51,.22,.06,.34,.38,.91,1.53,.1,.21,.18,.41,.18,.45,0,.06-.13,.14-.63,.43l-.29,.17c-.61,.36-.67,.51,.15,2.03,.27-.24,.82-.58,1.21-.81,.23-.13,.4-.23,.45-.24,.28-.08,.37,0,.86,.84,.35,.6,.41,.71,.37,.79Z"/><path class="cls-verde" d="M39.53,19.71s-.02,0-.03,.03c-.03,.07,.84,.97,2.57,.37,.39-.13,.53-.16,.6-.13,.07,.03,.15,.21,.47,1q.41,1.08,.17,1.25c-.09,.05-.38,.2-.74,.34-1.63,.62-3.13,.55-4.5-.68-1.62-1.46-2.56-5.14-.97-7.06,.37-.47,.94-.83,1.5-1.05,1.48-.56,3.02,.09,3.73,1.51,.86,1.71,.11,3.63-1.45,4.23-.81,.31-1.24,.15-1.35,.19Zm-.69-1.92c.15,.04,.37,.01,.56-.06,.18-.07,.34-.17,.43-.26,.27-.28,.3-.61,.08-.94-.19-.29-.49-.38-.74-.29-.41,.16-.56,.76-.53,1.15,0,.22,.11,.39,.19,.4Z"/><path class="cls-verde" d="M51.47,18.06c.01,.16,.14,2.36,.04,2.47-.05,.06-.72,.16-1.32,.2-.42,.03-.83,.04-.93,0,.02,0-.13-.03-.23-.16-.18-.24-.76-9.04-.63-9.19,.07-.08,.22-.09,1.52-.18l.55-.04c1.27-.09,2.57-.14,3.5,.67,1.71,1.48,.87,4.28-.18,5.23-.75,.7-1.48,.88-2.33,1.01Zm.49-2.31c.68-.25,1.05-1.73,.25-2.21-.33-.19-.71-.16-1.08-.13l.18,2.48c.16-.03,.44-.07,.65-.14Z"/><path class="cls-verde" d="M58.6,16.89s-.02,0-.04,.01c-.06,.05,.31,1.25,2.13,1.49,.4,.06,.54,.09,.59,.15,.05,.06,.04,.25-.03,1.1q-.12,1.15-.41,1.19c-.11,0-.43,0-.82-.03-1.73-.18-3.04-.93-3.7-2.64-.78-2.03,.04-5.74,2.32-6.73,.54-.25,1.21-.32,1.81-.25,1.57,.17,2.65,1.44,2.64,3.03,0,1.91-1.55,3.28-3.21,3.12-.86-.09-1.17-.43-1.29-.44Zm.25-2.03c.11,.1,.32,.18,.53,.2,.19,.02,.37,0,.5-.04,.37-.12,.54-.41,.5-.8-.03-.34-.26-.56-.53-.59-.44-.05-.85,.43-.99,.79-.09,.2-.08,.4-.01,.44Z"/><path class="cls-verde" d="M67.84,15.21c-.1-.03-.21-.04-.29-.01-.51,.14-.67,.93-2.38,6.4-.13,.05-.2,.11-.37,.06-.02,0-.03-.01-.05-.02-2.12-.73-2.12-.6-2.12-.96,.01-.16,1.72-6.05,2.58-8.6,.31-.05,.82,.04,1.3,.19,.61,.18,1.17,.43,1.21,.48,.1,.1,.08,.36,.12,.35,.51-.09,.84-.08,1.3,.06,.73,.22,1.32,.53,1.68,1.27,.51,1.02,.42,1.68-.83,5.87-.85,2.8-.69,2.42-.87,2.5-.11,.04-.2,.03-1.13-.25-1.09-.33-1.25-.41-1.26-.6s1.5-4.96,1.55-5.74c.02-.31-.06-.65-.18-.81-.05-.09-.14-.14-.25-.17Zm.64-2.68s-.26-.06-.54-.13c-.16-.03-.26-.06-.33-.08-.14-.04-.18-.07-.21-.12-.06-.11,0-.46,.17-.93,.3-.76,.67-1.74,1.68-1.44,.68,.21,.9,.59,.9,1.27,0,.34,.08,.6,.16,.57,.06-.02,.25-.39,.38-.81,.11-.37,.13-.42,.21-.44,.04,0,.15,0,.28,.05,.36,.11,.87,.32,.88,.4,.03,.08-.36,1.21-.53,1.51-.35,.62-.92,.83-1.63,.62-1.27-.38-.48-1.61-.77-1.7-.32-.1-.53,1.08-.65,1.23Z"/><path class="cls-verde" d="M75.16,26.08c-.07,.02-.93-.36-1.47-.64-.25-.13-.43-.24-.43-.26-.24-.27,0-.52-.02-.53-.05-.02-.87,.03-1.65-.37-.25-.13-.49-.29-.69-.52-1.23-1.33-.52-2.75,.25-4.36,.65-1.34,2.34-4.46,2.45-4.51,.08-.04,.52,.19,1.93,.87v.13c.04,.25-2.56,5.1-2.68,5.5-.16,.47-.04,.88,.42,1.12,.88,.46,1.19-.45,2.3-2.45,1.83-3.31,1.57-3.31,1.88-3.29,.11,.02,.25,.07,.61,.25l.44,.23c.79,.41,.89,.48,.91,.57,.07,.18-4.13,8.24-4.24,8.26Z"/><path class="cls-verde" d="M79.62,24.87s-.01-.01-.04,0c-.07,0-.39,1.23,1.03,2.39,.31,.26,.41,.36,.42,.44,0,.07-.1,.24-.6,.92q-.71,.91-.97,.8c-.1-.05-.37-.22-.68-.46-1.38-1.06-2.1-2.39-1.76-4.19,.4-2.14,3.05-4.87,5.51-4.51,.59,.08,1.2,.37,1.68,.74,1.25,.97,1.5,2.62,.66,3.97-1.01,1.62-3.04,1.98-4.37,.98-.69-.53-.77-.98-.87-1.05Zm1.28-1.59c.04,.15,.18,.32,.35,.45,.15,.12,.32,.2,.45,.23,.38,.09,.68-.06,.84-.42,.15-.31,.07-.62-.14-.78-.35-.27-.95-.08-1.26,.15-.19,.13-.28,.3-.24,.37Z"/><path class="cls-verde" d="M85.49,30.07l-.31-.12c-.81,.69-.79,.66-1.06,.92,.22,.23,.55,.56,.86,.9,.16,.17,.3,.32,.42,.48,.42,.5,.41,.49-.13,1-.54,.51-.98,.85-1.06,.84-.06,.01-.86-.82-1.64-1.65-.69-.74-1.34-1.47-1.42-1.59-.06-.09-.09-.2-.09-.23,.01-.3,3.41-3.48,4.63-4.43,1.24-.94,2.9-1.45,4.09-.18,.36,.39,.61,.89,.61,1.35-.04,1.81-2.97,3.48-4.9,2.71Zm2.04-2.24c.28-.07,.46-.21,.54-.36,.05-.07,.07-.14,.06-.15s-.15,.07-.41,.29c-.21,.17-.28,.22-.27,.23s.05,0,.09,0Z"/><path class="cls-verde" d="M85.99,36.74c-.74-1.11-.45-2.32,.25-3.38,.95-1.48,3.27-2.71,5.11-2.71,1.31,.02,2.24,.64,2.94,1.69,.16,.24,.29,.47,.3,.59,0,.04,.01,.05,.02,.07,.03,.04,.05,.05,.1,.06,.05,0,.09,.04,.24,.27,.08,.12,.18,.31,.35,.56,.59,.95,.61,1.02,.55,1.15-.08,.14-2.55,1.78-4.79,3.41-1.64,1.19-2.46,1.72-2.65,1.69-.07-.01-.12-.05-.35-.4l-.65-.98c-.45-.68-.36-.64,.2-1.07-.58,.02-1.18-.26-1.63-.94Zm2.49-1.67c.01,.12,.06,.26,.14,.37,.14,.21,.38,.41,.71,.42l.2,.02c.92-.61,2.49-1.67,2.53-1.77,.02-.03,0-.08-.05-.14-.08-.12-.26-.3-.46-.4-1.44-.85-3.14,.7-3.08,1.49Z"/></g><path class="cls-verde" d="M13.41,42.31c.15,.06,.31,.07,.47,.08,.19,.01,.37,.02,.55-.02s.36-.14,.45-.3c.1-.16,.11-.36,.11-.54,.02-.49-.01-.96-.43-1.27-.36-.27-.74-.35-1.12-.08-.67,.48-1.04,1.77-.04,2.14Z"/><path class="cls-verde" d="M95.05,41.93c.31,.02,.64,.01,.89-.17,.29-.2,.4-.59,.37-.94-.07-.83-1.55-1.37-2.15-.75-.8,.84-.1,1.79,.88,1.85Z"/><g><g><path class="cls-verde" d="M84.72,90.28c-1.39-2.65-2.23-6.22-2.69-8.74-.39-2.15-.57-3.84-.62-4.78,.19,.09,.37,.15,.52,.19,.36,.09,.84,.12,1.13-.05,.22-.13,.31-.42,.19-.65-1.06-2.15-1.46-3.94-1.31-5.98,.82-3.53,.97-6.8,.51-10.9-.32-2.84-2.5-7.52-3.66-10.02-.33-.72-.62-1.34-.68-1.52-.09-.28-.04-.37,.05-.53,.11-.2,.29-.53,.11-1.01-.18-.51-.64-.65-1.01-.76-.31-.1-.58-.18-.77-.45-.68-3.07-1.34-5.37-2.55-7.35-1.12-1.83-2.68-3.42-5.59-5.67-2.93-2.27-8.86-3.89-14.75-4.03-3.34-.08-6.47,.3-9.3,1.13-3.23,.94-5.95,2.44-8.07,4.46-3.2,3.04-5.42,6.3-6.62,9.71-.99,2.82-1.05,5.07-1.08,6.41-.01,.43-.02,.83-.07,.98-.15,.51-.62,1.14-1.04,1.69-.62,.82-1.1,1.47-.82,2.04,.24,.48,.81,.57,1.27,.64,.07,.01,.15,.02,.22,.04-.6,2.11-1.14,3.71-1.57,5.01-1.17,3.51-1.71,5.1-.98,9.07,0,0,0,0,0,.01,1.23,5.77,1.26,8.08,1.28,9.93,0,.23,0,.44,0,.65,.04,1.86-1.41,6.21-1.42,6.25-.08,.23,.02,.49,.24,.6,.22,.11,.48,.05,.63-.14,.05-.07,.89-1.19,1.63-2.4-.04,.49-.12,1.09-.27,1.79-.31,1.49-.99,3.75-2.42,6.05-.08,.12-.1,.27-.06,.41,.04,.14,.14,.25,.27,.31,.17,.08,.34,.11,.51,.11,.54,0,1.08-.35,1.46-.64,.61-.46,1.29-1.15,2.02-1.88,.98-.99,2.1-2.11,3.23-2.89,2.49-1.66,5.45-2.62,8.31-3.54,1.6-.52,3.1-1,4.42-1.59,1.5-.67,2.54-1.36,3.25-2.19,.77-.76,1.12-2.6,1.05-5.64,0-.06,0-.13,0-.15,0-.21-.12-.4-.31-.48-2.71-1.09-5.46-2.91-7.72-5.13-2.43-2.38-4.1-5-4.84-7.58-.94-4.51-.89-7.25-.68-8.75,.21-1.55,.63-2.14,.67-2.19,.18-.19,.17-.46,0-.65,0,0-.5-.6-.87-1.64-.49-1.38-.54-2.86-.14-4.38,.02-.03,.34-.41,2.44-.42,1.22,0,2.39,.12,2.41,.12,.26,.03,.49-.13,.54-.39,0-.02,.05-.17,.16-.28,.23,.14,.69,.43,1.41,.02,.04-.02,.07-.04,.1-.07,.63-.59,1.85-1.41,3.05-2.06,1.41-.76,2.13-.93,2.4-.94,.66,.85,1.66,1.7,2.97,2.52,1.1,.69,2.42,1.37,3.92,2.01,1.39,.59,2.63,1.02,3.42,1.28,.52,.17,.89,.27,1.11,.34,.48,.13,.56,.13,.65,.12,.04,0,.08-.02,.12-.03,3.14-1.24,6.41-2.12,9.2-2.46,1.18-.15,2.22-.19,3-.12,.86,.08,1.1,.26,1.15,.3,.34,2.33,.16,4.12-.5,4.92-.06,.07-.19,.23-.14,.47,.03,.15,.13,.28,.27,.34,.15,.07,.32,.07,.46,0,.82-.44,1.51-.36,2.25,.26,.56,.47,.33,1.55,.21,1.99-.1,.35-.54,1.59-1.25,2.71-.41,.65-.85,1.15-1.3,1.48-.51,.38-1.01,.54-1.54,.49-.14-.01-.27,.03-.37,.12-.1,.09-.17,.21-.18,.35-.13,2.11-.75,4.37-1.84,6.71-1.01,2.17-2.14,3.78-2.57,4.37-1.21,1.63-6.09,4.86-7.62,5.62-.19,.09-.3,.29-.28,.5,0,.07,.01,.19,.02,.33,.03,.68,.09,1.95,.62,4.06,.26,1.04,.87,1.97,1.72,2.62,2.52,1.94,5.77,2.53,8.91,3.1,1.64,.3,3.19,.58,4.6,1.04,.77,.25,1.51,.61,2.19,1.07,2.02,1.37,3.72,2.79,4.84,3.72,1.25,1.04,1.59,1.32,1.92,1.34,.18,.01,.36-.07,.46-.22,.1-.15,.11-.35,.03-.51Zm-1.77-1.38c-1.14-.95-2.86-2.38-4.92-3.78-.76-.52-1.58-.92-2.44-1.2-1.48-.48-3.13-.78-4.73-1.07-3.03-.55-6.16-1.12-8.48-2.91-.67-.52-1.16-1.25-1.36-2.07-.51-2.01-.56-3.21-.59-3.86,0-.02,0-.03,0-.05,.81-.44,2.25-1.33,3.74-2.38,1.38-.97,3.18-2.35,3.95-3.38,.46-.61,1.63-2.29,2.68-4.54,1.06-2.28,1.7-4.5,1.9-6.6,.6-.04,1.18-.28,1.73-.69,.54-.41,1.06-.99,1.54-1.74,.93-1.45,1.37-2.96,1.37-2.98,.38-1.35,.19-2.42-.52-3.03-.68-.57-1.39-.83-2.13-.77,.37-1.12,.42-2.69,.13-4.63-.03-.21-.15-.51-.55-.74-.42-.24-1.11-.38-2.04-.41-.89-.03-1.99,.05-3.2,.23-2.7,.39-5.82,1.24-8.78,2.4-.49-.12-2.53-.72-4.86-1.72-3.14-1.36-5.36-2.84-6.41-4.28-.05-.07-.13-.13-.21-.17-.34-.14-.81-.1-1.49,.14-.5,.17-1.13,.45-1.8,.81-1.28,.68-2.55,1.54-3.27,2.19-.17,.09-.2,.06-.34-.03-.16-.1-.51-.32-.93-.09-.28,.15-.46,.38-.57,.57-.48-.04-1.35-.1-2.26-.09-.79,0-1.45,.07-1.94,.19-.29,.07-1.16,.27-1.35,.97-.57,2.17-.21,3.93,.18,5.02,.27,.74,.6,1.29,.81,1.6-.2,.37-.48,1.05-.65,2.17-.16,1.02-.2,2.23-.13,3.59,.09,1.68,.36,3.6,.8,5.71,0,.01,0,.02,0,.03,.78,2.75,2.55,5.53,5.11,8.04,2.27,2.22,5,4.07,7.74,5.22,.06,3.58-.51,4.52-.76,4.75-.01,.01-.03,.03-.04,.04-.61,.72-1.54,1.34-2.91,1.94-1.26,.56-2.75,1.04-4.32,1.55-2.79,.9-5.95,1.92-8.55,3.66,0,0,0,0,0,0-1.22,.83-2.37,1.99-3.38,3.01-.7,.7-1.36,1.37-1.91,1.79-.04,.03-.08,.06-.12,.09,1.1-2.04,1.66-3.97,1.94-5.3,.35-1.65,.44-3.22,.21-3.81-.1-.27-.28-.38-.41-.42-.05-.01-.1-.02-.14-.02-.19,0-.38,.11-.46,.3-.14,.32-.33,.69-.54,1.05,.31-1.24,.58-2.57,.56-3.46,0-.21,0-.42,0-.64-.02-1.9-.05-4.25-1.3-10.12-.68-3.7-.2-5.13,.95-8.56,.45-1.33,1-2.99,1.62-5.18,.12-.3,.06-.52-.01-.67-.2-.38-.66-.45-1.06-.51-.13-.02-.35-.05-.48-.1,.1-.23,.44-.68,.67-1,.47-.62,.99-1.32,1.2-2,.08-.27,.09-.66,.11-1.24,.07-2.58,.23-8.62,7.39-15.42,2.01-1.9,4.58-3.33,7.66-4.23,2.73-.8,5.76-1.16,9-1.09,2.88,.07,5.78,.49,8.39,1.22,2.44,.68,4.49,1.61,5.78,2.6,2.8,2.17,4.3,3.68,5.35,5.4,1.15,1.87,1.79,4.12,2.45,7.12,.01,.05,.03,.1,.05,.14,.38,.66,.98,.84,1.38,.96,.12,.04,.33,.1,.37,.14,0,0,0,0,0,0q.02,.06-.05,.19c-.13,.23-.34,.63-.13,1.32,.08,.24,.3,.73,.73,1.64,1.15,2.46,3.28,7.03,3.58,9.71,.45,4,.3,7.18-.5,10.61,0,.02,0,.05-.01,.08-.08,1.06-.03,2.01,.16,3,.17,.9,.47,1.82,.89,2.78-.23-.08-.48-.22-.69-.47-.17-.2-.47-.23-.68-.07-.24,.18-.25,.48-.25,.88,0,.31,.03,.72,.07,1.21,.1,1.13,.28,2.51,.52,3.86,.38,2.17,1.02,5.07,2.04,7.62-.02-.02-.04-.04-.07-.05Z"/><path class="cls-verde" d="M32.79,70.59c-.54-1.77-.9-3.59-1.12-5.43-.08-.63-.13-1.3-.16-1.94-.07-1.48-.02-2.98,.21-4.45,.25-1.62,.76-3.18,1.42-4.69-2.07,2.93-2.74,6.44-2.55,9.98,.13,2.32,.58,4.62,1.35,6.81,.31,.81,.61,1.63,.76,2.48,.17,.94,.18,1.92,.06,2.87-.03,.25-.08,.52-.13,.77-.11,.58-.28,1.15-.47,1.71,.83-1.37,1.3-3.01,1.3-4.63,0-.55-.05-1.1-.16-1.64-.12-.63-.32-1.25-.51-1.86Z"/><path class="cls-verde" d="M43.21,77.6c.23-.9,.13-1.9-.36-2.7-.13-.22-.29-.42-.49-.58,0,.46,.03,.95,.03,1.4,0,.43-.03,.85-.08,1.28-.09,.71-.26,1.39-.45,2.08-.05,.17-.1,.35-.15,.53,.77-.39,1.29-1.19,1.5-2.02Z"/><path class="cls-verde" d="M67.82,76.47c-.01-.42-.02-.84-.12-1.25-.24-1.03-.92-1.95-1.86-2.42,.11,.25,.24,.49,.35,.74,.25,.55,.45,1.12,.55,1.71,.11,.65,.05,1.34,.21,2.01,.2,.86,.66,1.69,1.36,2.25-.1-.45-.22-.89-.3-1.34-.11-.56-.17-1.12-.18-1.69Z"/><path class="cls-verde" d="M73.67,61.72c-.29,.72-.46,1.5-.54,2.28-.27,2.66,.61,5.41,2.32,7.45,.74,.87,1.61,1.63,2.62,2.16-.72-.83-1.41-1.7-1.99-2.63-1.83-2.89-2.47-5.87-2.42-9.26Z"/><path class="cls-verde" d="M60.34,38.68c-1.04-.48-2.01-1.07-2.95-1.73-.83-.59-1.65-1.29-2.41-1.98,1.67,3.39,5.54,5.58,9.28,5.54,.54,0,1.07-.06,1.6-.17,0,0-.78-.15-.78-.15-1.63-.33-3.24-.8-4.74-1.51Z"/><path class="cls-verde" d="M39.93,34.48c.49-.14,.96-.34,1.41-.54,.88-.4,1.73-.82,2.58-1.28,.38-.21,.77-.43,1.13-.68,.05-.04,.11-.08,.16-.12-.07-.01-.13-.02-.2-.03-1.87-.17-4.17,.99-5.08,2.65Z"/></g><g><path class="cls-verde" d="M49.28,50.55s-.1,.07-.16,.1c-.6,.39-1.73,1.1-3.56,1.07-.73-.01-1.42-.17-2.01-.38-.04-.02-.08-.04-.13-.05-.9-.34-1.58-.78-1.93-1.01h-.01c-.23-.16-.54-.09-.69,.14-.15,.23-.09,.54,.15,.69h.01c.34,.23,.99,.66,1.85,1.01-.02,.25-.07,.52-.15,.64-.14,.24-.07,.54,.17,.69,.08,.05,.17,.07,.26,.07,.17,0,.33-.09,.43-.24,.14-.24,.22-.55,.26-.83,.24,.07,.49,.12,.75,.17,0,.16,0,.32-.03,.42-.09,.26,.04,.55,.3,.64,.06,.02,.11,.03,.17,.03,.21,0,.4-.13,.47-.33,.07-.2,.09-.44,.09-.65,0,0,.01,0,.02,0,.05,0,.11,0,.16,0,.39,0,.74-.03,1.07-.08,.06,.18,.15,.34,.22,.46,.09,.16,.26,.25,.43,.25,.09,0,.17-.02,.25-.07,.24-.14,.32-.45,.18-.68-.03-.05-.06-.12-.09-.18,.87-.27,1.49-.66,1.9-.92,.05-.03,.1-.07,.15-.1,.23-.15,.31-.45,.16-.69-.15-.23-.45-.31-.69-.16Z"/><path class="cls-verde" d="M58.51,51.08c.5,.29,1.28,.59,2.26,.77,0,.3-.02,.59-.05,.68-.13,.24-.03,.54,.21,.67,.07,.04,.15,.06,.23,.06,.18,0,.35-.1,.44-.27,.13-.25,.17-.67,.17-1.02,.28,.02,.56,.03,.86,.03,.05,0,.11,0,.16,0-.01,.24-.03,.45-.04,.53-.07,.27,.09,.54,.35,.61,.04,.01,.09,.02,.13,.02,.22,0,.42-.15,.48-.37,.04-.15,.06-.41,.08-.87,.38-.06,.74-.16,1.08-.27l.21,.52c.08,.19,.27,.31,.46,.31,.06,0,.13-.01,.19-.04,.26-.1,.38-.39,.28-.65l-.21-.53c.64-.32,1.13-.67,1.46-.9,.07-.05,.13-.09,.18-.12,.23-.16,.29-.47,.13-.69-.16-.23-.47-.29-.69-.13-.06,.04-.12,.08-.19,.13-.64,.46-1.97,1.41-3.78,1.45-1.79,.05-3.21-.4-3.88-.79-.24-.14-.54-.06-.68,.18-.14,.24-.06,.54,.18,.68Z"/><path class="cls-verde" d="M53.13,58.69c.46,.24,1.1,.37,1.72,.37,.11,0,.23,0,.34-.01,.93-.08,1.63-.46,1.97-1.08,.13-.24,.05-.55-.2-.68-.24-.13-.55-.05-.68,.2-.31,.56-1.37,.67-2.16,.5,1-1.77,.73-3.64,.72-3.72-.04-.27-.3-.46-.57-.42-.27,.04-.46,.3-.42,.57,0,.02,.28,1.96-.89,3.53-.09,.12-.12,.27-.09,.41,.03,.14,.13,.26,.26,.33Z"/><path class="cls-verde" d="M59.87,64.79c.17-.22,.12-.53-.1-.7-.22-.17-.53-.12-.7,.1-.46,.61-1.47,1.7-3.13,2.24-1.43,.46-2.7,.32-3.52,.11-.27-.07-.54,.09-.61,.36s.09,.54,.36,.61c.48,.12,1.1,.23,1.82,.23s1.44-.09,2.25-.35c1.93-.62,3.1-1.89,3.62-2.59Z"/><path class="cls-verde" d="M81.87,90.56c-.29-1-.69-1.9-1.18-2.69-.63-.99-1.41-1.79-2.32-2.37-1.37-.87-3.8-1.76-7.22-2.65-2.41-.63-4.48-1.03-4.7-1.07-2.48-.66-3.9-1.19-4.8-2.24-.47-.55-.79-1.24-1.01-2.17-.21-.91-.32-2.08-.33-3.56,6.47-3.26,7.98-5.95,9.35-8.38,.1-.17,.2-.36,.3-.53,0,0,0-.01,.01-.02,.03-.07,.09-.16,.16-.28,.45-.79,1.38-2.43,1.96-5.31,.14-.71,.25-1.44,.33-2.2,.04,0,.09,0,.13,0,.45,0,.9-.14,1.35-.41,.86-.52,1.68-1.54,2.45-3.01,.58-1.12,.95-2.15,1-2.43,.2-.99,.08-1.78-.34-2.36-.4-.55-1.06-.87-1.95-.95-1.04-.1-2,.23-2.78,.94-.03,.03-.06,.05-.08,.08-.1-.71-.21-1.43-.34-2.17-.01-.06-.03-.11-.06-.16-.15-.26-.44-.31-.82-.36-.28-.04-.66-.07-1.15-.11-3.86-.33-14.11-1.22-20.69-7.79-.03-.03-.07-.06-.11-.08-.43-.24-1.05-.15-1.95,.27-.6,.28-1.34,.72-2.2,1.31-1.44,.98-2.72,2.03-2.77,2.07,0,0,0,0,0,0-.03-.02-.07-.04-.1-.06-.21-.14-.51-.33-.9-.28-.1,.01-.19,.06-.26,.12-.3,.27-.36,.58-.4,.78,0,.03-.01,.05-.02,.08-.02,0-.03,0-.04,0-.39-.07-.67-.13-.89,.11-2.46,2.72-4.08,6.32-4.54,10.13-.51,4.21,.37,8.48,2.55,12.36,0,0,0,.01,0,.02,2.44,4,6.43,6.74,9.35,8.34,.65,.35,1.29,.68,1.92,.97,.19,.87,.22,1.71,.11,2.49-.12,.82-.42,1.59-.88,2.26-.47,.69-1.11,1.3-1.9,1.8-.83,.53-1.82,.95-2.96,1.25,0,0,0,0,0,0-.02,0-1.95,.53-4.25,1.3-3.1,1.04-5.37,2.01-6.72,2.87-.91,.58-1.71,1.39-2.35,2.41-.51,.8-.93,1.74-1.25,2.78-.54,1.76-.61,3.21-.61,3.27-.01,.28,.2,.51,.48,.52,0,0,.01,0,.02,0,.27,0,.49-.21,.5-.48,0-.01,.07-1.4,.57-3.04,.29-.95,.68-1.8,1.14-2.53,.56-.89,1.25-1.59,2.03-2.09,2.67-1.69,8.65-3.47,10.28-3.93,1.64,1.11,3.43,1.95,5.32,2.5,1.73,.51,3.56,.78,5.44,.8,.11,0,.22,0,.33,0,3.98,0,7.1-1.06,8.62-1.7,.98-.41,1.83-.88,2.46-1.34,.44-.32,.76-.63,.95-.92,.04,.01,.08,.02,.12,.03,.01,0,.02,0,.03,0,.08,.02,8.51,1.64,11.58,3.59,.79,.5,1.46,1.19,2,2.05,.44,.7,.8,1.51,1.07,2.42,.46,1.56,.48,2.87,.48,2.88,0,.27,.23,.49,.5,.49,0,0,0,0,0,0,.28,0,.5-.23,.49-.5,0-.06-.02-1.44-.51-3.13Zm-8.89-40.97c.57-.51,1.23-.73,1.98-.66,.6,.06,1.01,.24,1.24,.55,.25,.34,.31,.87,.17,1.56-.03,.14-.34,1.08-.91,2.16-.67,1.29-1.4,2.2-2.09,2.62-.3,.19-.59,.27-.88,.26,.12-1.78,.07-3.7-.14-5.74,.09-.15,.29-.46,.62-.76Zm-25.66,23.06c-1.82-1-3.48-2.13-4.92-3.36-1.7-1.44-3.06-3-4.05-4.62-2.07-3.69-2.91-7.75-2.42-11.74,.43-3.53,1.9-6.86,4.13-9.4,.04,0,.09,.02,.12,.02,.38,.07,.66,.12,.88-.11,.25-.27,.31-.56,.35-.75,0,0,0,0,0,0,.01,0,.02,.02,.04,.02,.13,.08,.27,.18,.45,.23,.4,.13,.74-.14,.86-.26,.15-.12,1.33-1.08,2.63-1.96,.8-.55,1.49-.96,2.04-1.23,.7-.34,1-.35,1.09-.35,6.84,6.76,17.29,7.66,21.23,8,.45,.04,.92,.08,1.19,.12,.79,4.51,.85,8.49,.18,11.82-.54,2.72-1.42,4.27-1.85,5.01-.07,.13-.13,.23-.17,.31-.1,.18-.2,.35-.3,.53-.82,1.46-1.67,2.97-3.68,4.66-2.31,1.94-5.82,3.81-10.72,5.72-1.02-.04-3.94-.96-7.06-2.67Zm1.49,7.16c.93-1.37,1.28-3.02,1.04-4.82,2.03,.86,3.76,1.34,4.6,1.34,0,0,.02,0,.03,0,.06,0,.12-.01,.18-.03,1.77-.69,3.31-1.35,4.66-1.99,.03,1.35,.14,2.41,.35,3.3,.25,1.08,.65,1.93,1.22,2.6,.24,.28,.5,.53,.8,.75-.29,.16-.72,.36-1.31,.57-.78,.28-2.06,.65-3.73,.86-1.62,.2-3.2,.19-4.7-.04-1.52-.23-2.93-.67-4.2-1.32,.41-.37,.76-.78,1.06-1.22Zm14.77,3.64c-.42-.59-1.08-1.05-1.09-1.06-.14-.1-.34-.06-.43,.09-.1,.14-.06,.34,.08,.43,0,0,.24,.17,.51,.42,.15,.14,.27,.27,.37,.4-.22,.11-.46,.22-.72,.33-.65,.27-1.59,.62-2.78,.93,0-.04-.02-.08-.03-.13-.12-.54-.31-.94-.57-1.2-.12-.12-.32-.12-.44,0s-.12,.32,0,.44c.23,.23,.36,.67,.43,1.03-.51,.12-1.06,.22-1.64,.31-.13-.97-.44-1.45-.7-1.69-.13-.12-.32-.11-.44,.01-.12,.13-.11,.32,.01,.44,.24,.22,.42,.69,.51,1.31-.9,.11-1.87,.17-2.9,.15-.29,0-.59-.02-.88-.03,.02-.41,.02-.98-.1-1.37-.05-.16-.22-.26-.39-.21-.16,.05-.26,.22-.21,.39,.09,.29,.09,.76,.07,1.14-1.26-.11-2.49-.34-3.67-.69-.06-.02-.12-.03-.17-.05,.26-.27,.37-.44,.32-.63-.05-.17-.22-.26-.38-.22-.12,.03-.2,.13-.22,.24-.06,.08-.21,.23-.38,.39-1.22-.42-2.38-.97-3.49-1.64,.89-.3,1.69-.67,2.39-1.12,.1-.06,.19-.12,.28-.19,.12,.07,.25,.13,.37,.2-.36,.37-.81,.93-.88,1.48-.02,.17,.1,.33,.27,.35,.01,0,.03,0,.04,0,.16,0,.29-.12,.31-.28,.03-.24,.23-.58,.55-.95,.11-.12,.22-.23,.31-.31,.83,.38,1.72,.68,2.65,.9-.04,.16-.09,.35-.14,.53-.08,.3-.14,.55-.18,.72-.07,.31-.12,.53,.08,.67,.05,.04,.11,.05,.18,.05,.1,0,.2-.05,.26-.14,.05-.07,.06-.15,.05-.23,.02-.18,.19-.83,.37-1.49,.22,.04,.45,.08,.67,.11,.7,.1,1.41,.16,2.13,.18,.07,.45,.34,.7,.36,.71l.42-.46h0s-.09-.09-.14-.25c.72,0,1.46-.06,2.2-.15,1.23-.15,2.26-.39,3.05-.62,.32,.48,.56,.94,.56,1.08,0,.17,.13,.32,.3,.32,0,0,0,0,.01,0,.17,0,.31-.13,.31-.3,0-.16-.04-.44-.45-1.11-.04-.06-.08-.12-.11-.18,.1-.03,.19-.06,.28-.1,.49-.18,1.29-.49,1.83-.87,.54,.44,1.08,.9,1.24,1.09,.04,.13,.13,.24,.25,.3,.07,.04,.15,.05,.22,.05-.2,.13-.43,.27-.69,.41Zm1.16-.75c.04-.12,.04-.24,0-.34,.1,.03,.19,.06,.29,.09-.08,.08-.18,.16-.29,.26Z"/></g><path class="cls-verde" d="M74.29,43.37c-6.54-1.84-16.45,2.92-17.15,3.48-.93,.74-1.68,.68-2.25,.68-.58,0-.94,0-2.19-.74-1.85-1.38-10.83-4.73-17.27-3.57-1.17,5.93,5.32,14.37,10.61,14.44,5.11-.11,7.42-4.04,8.2-7.63,.31-.23,1.07-.17,1.21-.04,1.61,6.41,4.94,7.48,8.6,7.55,3.09,.02,10.74-4.38,10.26-14.16Zm-26.58,12.73c-.83,.19-1.69,.15-2.49-.1-4.8-1.5-5.72-5.59-5.9-6.66-.04-.27-.05-.54,0-.81,.12-.79,.72-2.13,3.48-2.42,4.22-.51,9.77,2.98,10.16,3.18-.8,5.3-3.27,6.37-5.24,6.81Zm22.63-6.81c-.18,1.07-1.1,5.16-5.9,6.66-.81,.25-1.67,.29-2.49,.1-1.97-.44-4.43-1.51-5.24-6.81,.39-.2,5.94-3.69,10.16-3.18,2.76,.3,3.36,1.63,3.48,2.42,.04,.27,.04,.54,0,.81Z"/><circle class="cls-verde" cx="73.57" cy="54.33" r=".75"/></g></g></g></svg>
